<svg class="icon" width="20" height="20" viewBox="0 0 20 20" fill="none" xmlns="http://www.w3.org/2000/svg">
<path fill-rule="evenodd" clip-rule="evenodd" d="M9.99983 18.3333C14.6022 18.3333 18.3332 14.6021 18.3332 9.99998C18.3332 5.39786 14.6022 1.66665 9.99983 1.66664C5.39798 1.66664 1.66649 5.39813 1.66649 9.99998C1.66649 14.6018 5.39798 18.3333 9.99983 18.3333ZM9.99983 17.0833C6.08834 17.0833 2.91649 13.9115 2.91649 9.99998C2.91649 6.08849 6.08834 2.91664 9.99983 2.91664C13.9119 2.91664 17.0832 6.08819 17.0832 9.99998C17.0832 13.9118 13.9119 17.0833 9.99983 17.0833ZM12.5196 11.7036C12.7639 11.8856 13.1111 11.8662 13.3335 11.6448C13.5781 11.4012 13.5789 11.0055 13.3354 10.7609L10.4429 7.85591L10.3727 7.79508C10.1276 7.61259 9.77919 7.63286 9.5571 7.85591L6.6646 10.7609L6.60424 10.8311C6.42322 11.0762 6.44414 11.4234 6.66651 11.6448L6.73674 11.7052C6.9818 11.8862 7.32898 11.8653 7.55039 11.6429L10.0008 9.18331L12.4496 11.6429L12.5196 11.7036Z" />
</svg>
