<svg class="icon" width="20" height="20" viewBox="0 0 20 20" fill="none" xmlns="http://www.w3.org/2000/svg">
<g>
<path fill-rule="evenodd" clip-rule="evenodd" d="M1.66667 9.99986C1.66667 14.6023 5.39788 18.3332 10 18.3332C14.6021 18.3332 18.3333 14.6023 18.3333 9.99986C18.3333 5.39801 14.6019 1.66652 10 1.66652C5.39816 1.66652 1.66667 5.39801 1.66667 9.99986ZM2.91667 9.99986C2.91667 6.08837 6.08852 2.91652 10 2.91652C13.9115 2.91652 17.0833 6.08837 17.0833 9.99986C17.0833 13.9119 13.9118 17.0832 10 17.0832C6.08822 17.0832 2.91667 13.9119 2.91667 9.99986ZM8.29643 12.5196C8.11436 12.7639 8.13378 13.1111 8.35519 13.3335C8.59875 13.5781 8.99447 13.579 9.23908 13.3354L12.1441 10.4429L12.2049 10.3727C12.3874 10.1277 12.3671 9.77922 12.1441 9.55713L9.23908 6.66463L9.16885 6.60427C8.92378 6.42325 8.5766 6.44417 8.35519 6.66654L8.29483 6.73677C8.11381 6.98183 8.13473 7.32901 8.3571 7.55042L10.8167 10.0009L8.3571 12.4496L8.29643 12.5196Z" />
</g>
</svg>
