<svg class="icon" width="20" height="20" viewBox="0 0 20 20" fill="none" xmlns="http://www.w3.org/2000/svg">
<path fill-rule="evenodd" clip-rule="evenodd" d="M10.0002 1.66669C5.39777 1.66669 1.66684 5.3979 1.66684 10C1.66684 14.6021 5.39777 18.3334 10.0002 18.3334C14.602 18.3334 18.3335 14.6019 18.3335 10C18.3335 5.39818 14.602 1.66669 10.0002 1.66669ZM10.0002 2.91669C13.9117 2.91669 17.0835 6.08853 17.0835 10C17.0835 13.9115 13.9117 17.0834 10.0002 17.0834C6.08815 17.0834 2.91684 13.9118 2.91684 10C2.91684 6.08823 6.08815 2.91669 10.0002 2.91669ZM7.48043 8.29645C7.23615 8.11438 6.88889 8.1338 6.66652 8.35521C6.42192 8.59876 6.42106 8.99449 6.66461 9.23909L9.55711 12.1441L9.6273 12.2049C9.87236 12.3874 10.2208 12.3671 10.4429 12.1441L13.3354 9.23909L13.3958 9.16886C13.5768 8.9238 13.5559 8.57662 13.3335 8.35521L13.2633 8.29485C13.0182 8.11383 12.671 8.13475 12.4496 8.35712L9.99917 10.8167L7.5504 8.35712L7.48043 8.29645Z" />
</svg>
