<svg class="icon" width="22" height="22" viewBox="0 0 22 22" fill="none" xmlns="http://www.w3.org/2000/svg">
<g>
<path fill="none" d="M8.25 18.5625H4.125C3.94266 18.5625 3.7678 18.4901 3.63886 18.3612C3.50993 18.2322 3.4375 18.0574 3.4375 17.875V14.0348C3.4375 13.9445 3.45528 13.8551 3.48983 13.7717C3.52438 13.6883 3.57502 13.6125 3.63886 13.5487L13.9514 3.23615C14.0803 3.10722 14.2552 3.03479 14.4375 3.03479C14.6198 3.03479 14.7947 3.10722 14.9236 3.23615L18.7639 7.07638C18.8928 7.20531 18.9652 7.38018 18.9652 7.56252C18.9652 7.74485 18.8928 7.91972 18.7639 8.04865L8.25 18.5625Z" stroke-width="1.25" stroke-linecap="round" stroke-linejoin="round"/>
<path fill="none" d="M11.6875 5.5L16.5 10.3125" stroke-width="1.25" stroke-linecap="round" stroke-linejoin="round"/>
<path fill="none" d="M18.5625 18.5625H8.25L3.48125 13.7938" stroke-width="1.25" stroke-linecap="round" stroke-linejoin="round"/>
</g>
</svg>
