<svg width="226" height="204" viewBox="0 0 226 204" fill="none" xmlns="http://www.w3.org/2000/svg">
<path class="svg-cream2" d="M140.418 118.545H57.6364C54.8292 118.542 52.1378 117.424 50.1528 115.436C48.1678 113.449 47.0513 110.754 47.0481 107.943V10.6016C47.0513 7.79084 48.1678 5.09613 50.1528 3.10864C52.1378 1.12114 54.8292 0.00317501 57.6364 0H134.651L151.006 13.0524V107.943C151.003 110.754 149.886 113.449 147.901 115.436C145.916 117.424 143.225 118.542 140.418 118.545Z" />
<path class="svg-cream" d="M124.317 31.3563H86.6276C86.3961 31.3563 86.1668 31.3107 85.9529 31.2219C85.7389 31.1332 85.5446 31.0032 85.3808 30.8392C85.2171 30.6753 85.0872 30.4807 84.9986 30.2665C84.91 30.0523 84.8644 29.8227 84.8644 29.5909C84.8644 29.359 84.91 29.1295 84.9986 28.9153C85.0872 28.7011 85.2171 28.5065 85.3808 28.3425C85.5446 28.1786 85.7389 28.0485 85.9529 27.9598C86.1668 27.8711 86.3961 27.8254 86.6276 27.8254H124.317C124.548 27.8254 124.778 27.8711 124.992 27.9598C125.205 28.0485 125.4 28.1786 125.564 28.3425C125.727 28.5065 125.857 28.7011 125.946 28.9153C126.034 29.1295 126.08 29.359 126.08 29.5909C126.08 29.8227 126.034 30.0523 125.946 30.2665C125.857 30.4807 125.727 30.6753 125.564 30.8392C125.4 31.0032 125.205 31.1332 124.992 31.2219C124.778 31.3107 124.548 31.3563 124.317 31.3563Z" />
<path class="svg-cream" d="M131.59 37.3147H86.6276C86.16 37.3147 85.7115 37.1287 85.3808 36.7976C85.0501 36.4665 84.8644 36.0175 84.8644 35.5493C84.8644 35.081 85.0501 34.632 85.3808 34.3009C85.7115 33.9698 86.16 33.7838 86.6276 33.7838H131.59C132.058 33.7838 132.506 33.9698 132.837 34.3009C133.168 34.632 133.353 35.081 133.353 35.5493C133.353 36.0175 133.168 36.4665 132.837 36.7976C132.506 37.1287 132.058 37.3147 131.59 37.3147Z" />
<path class="svg-cream" d="M124.317 58.0587H86.6276C86.16 58.0587 85.7115 57.8727 85.3808 57.5416C85.0501 57.2105 84.8644 56.7615 84.8644 56.2932C84.8644 55.825 85.0501 55.376 85.3808 55.0449C85.7115 54.7138 86.16 54.5278 86.6276 54.5278H124.317C124.784 54.5278 125.233 54.7138 125.564 55.0449C125.894 55.376 126.08 55.825 126.08 56.2932C126.08 56.7615 125.894 57.2105 125.564 57.5416C125.233 57.8727 124.784 58.0587 124.317 58.0587Z" />
<path class="svg-cream" d="M131.59 64.0171H86.6276C86.16 64.0171 85.7115 63.8311 85.3808 63.5C85.0501 63.1689 84.8644 62.7199 84.8644 62.2516C84.8644 61.7834 85.0501 61.3343 85.3808 61.0033C85.7115 60.6722 86.16 60.4862 86.6276 60.4862H131.59C132.058 60.4862 132.506 60.6722 132.837 61.0033C133.168 61.3343 133.353 61.7834 133.353 62.2516C133.353 62.7199 133.168 63.1689 132.837 63.5C132.506 63.8311 132.058 64.0171 131.59 64.0171Z" />
<path class="svg-cream" d="M124.317 84.7611H86.6276C86.16 84.7611 85.7115 84.5751 85.3808 84.244C85.0501 83.9129 84.8644 83.4638 84.8644 82.9956C84.8644 82.5274 85.0501 82.0783 85.3808 81.7473C85.7115 81.4162 86.16 81.2302 86.6276 81.2302H124.317C124.784 81.2302 125.233 81.4162 125.564 81.7473C125.894 82.0783 126.08 82.5274 126.08 82.9956C126.08 83.4638 125.894 83.9129 125.564 84.244C125.233 84.5751 124.784 84.7611 124.317 84.7611Z" />
<path class="svg-cream" d="M131.59 90.7194H86.6276C86.16 90.7194 85.7115 90.5334 85.3808 90.2023C85.0501 89.8713 84.8644 89.4222 84.8644 88.954C84.8644 88.4858 85.0501 88.0367 85.3808 87.7056C85.7115 87.3745 86.16 87.1885 86.6276 87.1885H131.59C132.058 87.1885 132.506 87.3745 132.837 87.7056C133.168 88.0367 133.353 88.4858 133.353 88.954C133.353 89.4222 133.168 89.8713 132.837 90.2023C132.506 90.5334 132.058 90.7194 131.59 90.7194Z" />
<path class="svg-red" d="M70.9329 38.8099C74.3747 38.8099 77.1649 36.0163 77.1649 32.5701C77.1649 29.1239 74.3747 26.3302 70.9329 26.3302C67.491 26.3302 64.7008 29.1239 64.7008 32.5701C64.7008 36.0163 67.491 38.8099 70.9329 38.8099Z" />
<path class="svg-white" d="M70.3153 34.9504C70.1751 34.9506 70.0386 34.9052 69.9264 34.821L69.9195 34.8158L68.4549 33.694C68.318 33.5888 68.2285 33.4335 68.206 33.2622C68.1835 33.0909 68.2298 32.9177 68.3348 32.7807C68.4397 32.6436 68.5948 32.5538 68.7658 32.5311C68.9368 32.5084 69.1099 32.5546 69.2469 32.6596L70.1955 33.388L72.4373 30.4597C72.4892 30.3919 72.5541 30.3349 72.628 30.2921C72.702 30.2493 72.7837 30.2215 72.8684 30.2103C72.9531 30.1991 73.0392 30.2047 73.1217 30.2268C73.2042 30.2489 73.2816 30.2871 73.3494 30.3391L73.3496 30.3393L73.3357 30.3586L73.35 30.3393C73.4868 30.4445 73.5763 30.5998 73.5988 30.7711C73.6214 30.9423 73.5752 31.1156 73.4703 31.2527L70.8335 34.6955C70.7725 34.7748 70.6941 34.839 70.6043 34.8831C70.5146 34.9271 70.4158 34.9499 70.3159 34.9496L70.3153 34.9504Z" />
<path class="svg-cream" d="M71.5746 65.5123C75.0165 65.5123 77.8066 62.7186 77.8066 59.2724C77.8066 55.8262 75.0165 53.0326 71.5746 53.0326C68.1327 53.0326 65.3425 55.8262 65.3425 59.2724C65.3425 62.7186 68.1327 65.5123 71.5746 65.5123Z" />
<path class="svg-cream" d="M70.9329 92.2147C74.3747 92.2147 77.1649 89.421 77.1649 85.9748C77.1649 82.5286 74.3747 79.7349 70.9329 79.7349C67.491 79.7349 64.7008 82.5286 64.7008 85.9748C64.7008 89.421 67.491 92.2147 70.9329 92.2147Z" />
<path class="svg-white" d="M63.9623 136.784L14.9847 147.12C13.5693 147.417 12.094 147.14 10.8825 146.349C9.671 145.559 8.82221 144.319 8.52236 142.902L0.117876 102.98C-0.1788 101.563 0.0980761 100.085 0.887761 98.8724C1.67745 97.6594 2.91545 96.8095 4.33017 96.5093L53.3078 86.1727C54.7231 85.8757 56.1984 86.1529 57.4099 86.9436C58.6214 87.7343 59.4702 88.9738 59.7701 90.3903L68.1746 130.313C68.4712 131.73 68.1944 133.207 67.4047 134.42C66.615 135.633 65.377 136.483 63.9623 136.784Z" />
<path class="svg-grey" d="M63.9623 136.784L14.9847 147.12C13.5693 147.417 12.094 147.14 10.8825 146.349C9.671 145.559 8.82221 144.319 8.52236 142.902L0.117876 102.98C-0.1788 101.563 0.0980761 100.085 0.887761 98.8724C1.67745 97.6594 2.91545 96.8095 4.33017 96.5093L53.3078 86.1727C54.7231 85.8757 56.1984 86.1529 57.4099 86.9436C58.6214 87.7343 59.4702 88.9738 59.7701 90.3903L68.1746 130.313C68.4712 131.73 68.1944 133.207 67.4047 134.42C66.615 135.633 65.377 136.483 63.9623 136.784ZM4.46252 97.138C3.21425 97.4029 2.1219 98.1528 1.42512 99.2231C0.728335 100.293 0.484026 101.597 0.74579 102.847L9.15028 142.77C9.41486 144.02 10.1638 145.114 11.2328 145.811C12.3017 146.509 13.6034 146.753 14.8523 146.491L63.8299 136.155C65.0782 135.89 66.1705 135.14 66.8673 134.07C67.5641 132.999 67.8084 131.696 67.5466 130.446L59.1422 90.5229C58.8776 89.273 58.1286 88.1793 57.0597 87.4816C55.9907 86.784 54.689 86.5394 53.4401 86.8015L4.46252 97.138Z" />
<path class="svg-brown-light" d="M63.2926 110.07C63.2069 110.226 63.1336 110.388 63.0734 110.555L47.6295 114.393L44.9428 111.61L40.2181 115.121L44.4962 120.51C44.8418 120.945 45.3192 121.257 45.8566 121.397C46.394 121.538 46.9625 121.5 47.4767 121.29L64.2348 114.434C64.7856 114.84 65.4468 115.068 66.1305 115.089C66.8142 115.109 67.4878 114.921 68.062 114.549C68.6361 114.176 69.0835 113.638 69.3445 113.005C69.6056 112.372 69.668 111.675 69.5235 111.005C69.3789 110.336 69.0343 109.726 68.5354 109.258C68.0365 108.789 67.407 108.484 66.7306 108.383C66.0542 108.281 65.363 108.388 64.7488 108.69C64.1347 108.991 63.6268 109.473 63.2927 110.07L63.2926 110.07Z" />
<path class="svg-brown-light" d="M10.5768 144.218C11.0583 144.069 11.5013 143.816 11.8747 143.477C12.248 143.138 12.5426 142.722 12.7377 142.257C12.9329 141.791 13.0237 141.289 13.004 140.785C12.9842 140.281 12.8543 139.787 12.6233 139.339L23.2515 109.761L15.8706 108.451L7.74434 137.937C7.01765 138.375 6.47681 139.065 6.22431 139.876C5.97181 140.687 6.02518 141.563 6.37432 142.337C6.72346 143.111 7.34411 143.73 8.11865 144.077C8.8932 144.424 9.76783 144.474 10.5768 144.218Z" />
<path class="svg-red" d="M21.9016 115.011L14.6142 112.211C14.4068 112.131 14.2191 112.008 14.0637 111.849C13.9083 111.69 13.7889 111.5 13.7137 111.29C13.6385 111.081 13.6093 110.858 13.6279 110.636C13.6465 110.415 13.7126 110.2 13.8217 110.006L17.6447 103.219C18.058 102.16 18.8741 101.307 19.9141 100.849C20.9541 100.391 22.1331 100.364 23.1927 100.775C24.2523 101.185 25.106 102 25.5667 103.04C26.0273 104.08 26.0573 105.26 25.6501 106.323L23.9639 113.904C23.9155 114.121 23.821 114.325 23.6868 114.502C23.5526 114.679 23.3818 114.825 23.1861 114.93C22.9904 115.035 22.7744 115.097 22.5527 115.111C22.3311 115.125 22.109 115.091 21.9016 115.011V115.011Z" />
<path class="svg-brown-light" d="M38.3505 199.748L42.2842 199.748L44.1554 184.556L38.3499 184.557L38.3505 199.748Z" />
<path class="svg-grey-dark" d="M37.347 198.463L45.0938 198.462H45.0941C45.7424 198.462 46.3844 198.59 46.9834 198.838C47.5823 199.087 48.1266 199.451 48.585 199.91C49.0434 200.369 49.4071 200.914 49.6552 201.514C49.9033 202.113 50.031 202.756 50.031 203.405V203.566L37.3473 203.566L37.347 198.463Z" />
<path class="svg-brown-light" d="M16.2113 199.748L20.1451 199.748L22.0163 184.556L16.2107 184.557L16.2113 199.748Z" />
<path class="svg-grey-dark" d="M15.2079 198.463L22.9546 198.462H22.9549C23.6032 198.462 24.2452 198.59 24.8442 198.838C25.4432 199.087 25.9874 199.451 26.4458 199.91C26.9043 200.369 27.2679 200.914 27.516 201.514C27.7641 202.113 27.8918 202.756 27.8918 203.405V203.566L15.2081 203.566L15.2079 198.463Z" />
<path class="svg-grey-dark" d="M20.3352 193.634H15.3572C15.1618 193.634 14.9684 193.594 14.7888 193.517C14.6092 193.44 14.4471 193.327 14.3123 193.186C14.1774 193.044 14.0727 192.877 14.0044 192.693C13.9361 192.51 13.9057 192.315 13.915 192.12L16.2795 141.254L16.4285 141.25L40.4669 140.622L45.1708 191.517C45.1889 191.708 45.1689 191.9 45.112 192.083C45.0551 192.266 44.9625 192.436 44.8394 192.583C44.7164 192.73 44.5654 192.851 44.3953 192.939C44.2252 193.027 44.0394 193.08 43.8486 193.095L38.2572 193.543C37.906 193.571 37.5566 193.469 37.2749 193.257C36.9932 193.045 36.7986 192.737 36.7277 192.392L29.5756 156.161C29.5561 156.051 29.4978 155.952 29.4113 155.881C29.3249 155.81 29.2159 155.773 29.1043 155.776H29.1023C28.9903 155.774 28.8812 155.812 28.7948 155.883C28.7084 155.954 28.6506 156.055 28.6319 156.165L21.7518 192.467C21.6867 192.796 21.5099 193.092 21.2517 193.304C20.9934 193.517 20.6695 193.633 20.3352 193.634Z" />
<path class="svg-brown-light" d="M29.4538 95.8881C33.8062 95.8881 37.3344 92.3554 37.3344 87.9976C37.3344 83.6398 33.8062 80.1071 29.4538 80.1071C25.1015 80.1071 21.5732 83.6398 21.5732 87.9976C21.5732 92.3554 25.1015 95.8881 29.4538 95.8881Z" />
<path class="svg-red" d="M26.8113 147.215C23.0553 147.215 19.1973 146.226 15.9991 143.303C15.8289 143.149 15.6975 142.956 15.6156 142.742C15.5336 142.527 15.5035 142.295 15.5276 142.067C15.8699 138.987 17.5304 123.086 16.5953 112.465C16.4128 110.481 16.6933 108.481 17.4147 106.625C18.1361 104.768 19.2787 103.104 20.7522 101.765C22.1999 100.429 23.9379 99.4484 25.829 98.9002C27.7201 98.3519 29.7126 98.2512 31.6492 98.6059H31.6493C31.7474 98.6235 31.8455 98.642 31.9437 98.6608C38.2529 99.8834 42.6366 105.73 42.1406 112.26C41.4168 121.789 40.7679 134.677 41.7868 141.966C41.829 142.264 41.777 142.568 41.638 142.836C41.4991 143.103 41.2802 143.32 41.012 143.456C38.6938 144.629 32.8859 147.215 26.8113 147.215Z" />
<path class="svg-red" d="M37.0945 115.579C36.9096 115.456 36.7534 115.294 36.6366 115.105C36.5198 114.916 36.4451 114.704 36.4177 114.483L35.4576 106.776C35.1528 105.68 35.2945 104.508 35.8517 103.516C36.4088 102.525 37.3359 101.795 38.4297 101.487C39.5235 101.178 40.6948 101.317 41.6866 101.872C42.6785 102.427 43.4101 103.353 43.721 104.448L46.8834 111.567C46.9737 111.77 47.0191 111.991 47.0167 112.213C47.0142 112.435 46.9639 112.655 46.8692 112.856C46.7746 113.057 46.6377 113.235 46.4679 113.379C46.2982 113.522 46.0996 113.627 45.8856 113.687L38.3656 115.782C38.1516 115.842 37.9273 115.855 37.7079 115.82C37.4886 115.785 37.2793 115.703 37.0945 115.579Z" />
<path class="svg-grey-dark" d="M26.7027 95.7767C25.9567 95.7905 25.2155 95.6562 24.5217 95.3816C24.2165 95.2638 23.8996 95.167 23.5949 95.0491C20.904 94.0082 19.1314 91.1388 19.0679 88.2511C19.0044 85.3634 20.4979 82.5607 22.7157 80.7136C24.9335 78.8665 27.8061 77.9182 30.6826 77.6989C33.781 77.4627 37.2699 78.2494 39.0012 80.833C39.4621 81.5207 39.7844 82.3551 39.5113 83.1854C39.4295 83.436 39.2834 83.6606 39.0877 83.8369C38.3145 84.5257 37.5437 84.0078 36.7555 83.962C35.6721 83.8991 34.699 84.7772 34.3493 85.8058C33.9995 86.8344 34.1535 87.9668 34.4359 89.0159C34.651 89.6472 34.7866 90.3029 34.8396 90.9678C34.8624 91.3013 34.7997 91.635 34.6576 91.9374C34.5155 92.2398 34.2986 92.5008 34.0275 92.6957C33.3505 93.1055 32.4615 92.8683 31.7841 92.4593C31.1067 92.0502 30.5214 91.4814 29.7897 91.1804C29.058 90.8794 28.075 90.9462 27.6491 91.6136C27.5138 91.8565 27.4222 92.1213 27.3785 92.396C26.9967 94.1376 27.0844 94.035 26.7027 95.7767V95.7767Z" />
<path class="svg-cream" d="M61.498 204H0.535091C0.449994 204 0.368383 203.966 0.30821 203.906C0.248038 203.846 0.214233 203.764 0.214233 203.679C0.214233 203.594 0.248038 203.512 0.30821 203.452C0.368383 203.391 0.449994 203.357 0.535091 203.357H61.498C61.5831 203.357 61.6647 203.391 61.7249 203.452C61.7851 203.512 61.8189 203.594 61.8189 203.679C61.8189 203.764 61.7851 203.846 61.7249 203.906C61.6647 203.966 61.5831 204 61.498 204Z" />
<path class="svg-white" d="M217.545 137.701L173.89 162.219C172.628 162.926 171.138 163.103 169.745 162.711C168.353 162.319 167.173 161.39 166.464 160.128L146.53 124.543C145.824 123.28 145.647 121.787 146.038 120.393C146.43 119 147.358 117.818 148.618 117.108L192.273 92.5906C193.536 91.8837 195.026 91.7069 196.418 92.099C197.81 92.4911 198.99 93.42 199.699 94.6821L219.634 130.266C220.34 131.53 220.517 133.022 220.125 134.416C219.734 135.81 218.806 136.992 217.545 137.701Z" />
<path class="svg-grey" d="M217.545 137.701L173.89 162.219C172.628 162.926 171.138 163.103 169.745 162.711C168.353 162.319 167.173 161.39 166.464 160.128L146.53 124.543C145.824 123.28 145.647 121.787 146.038 120.393C146.43 119 147.358 117.818 148.618 117.108L192.273 92.5906C193.536 91.8837 195.026 91.7069 196.418 92.099C197.81 92.4911 198.99 93.42 199.699 94.6821L219.634 130.266C220.34 131.53 220.517 133.022 220.125 134.416C219.734 135.81 218.806 136.992 217.545 137.701ZM148.932 117.669C147.82 118.295 147.001 119.337 146.656 120.567C146.31 121.797 146.466 123.114 147.089 124.229L167.024 159.813C167.65 160.927 168.691 161.747 169.919 162.093C171.147 162.439 172.463 162.282 173.576 161.659L217.231 137.141C218.344 136.515 219.162 135.472 219.508 134.242C219.853 133.013 219.697 131.696 219.074 130.581L199.14 94.9964C198.514 93.8828 197.473 93.0632 196.245 92.7172C195.016 92.3713 193.701 92.5273 192.587 93.151L148.932 117.669Z" />
<path class="svg-peach-light" d="M202.644 147.865C202.828 147.46 202.92 147.021 202.915 146.577C202.91 146.133 202.808 145.695 202.616 145.295C202.423 144.895 202.146 144.542 201.803 144.261C201.46 143.979 201.059 143.777 200.629 143.668L199.715 132.914L195.317 136.387L196.86 146.067C196.724 146.802 196.862 147.561 197.248 148.201C197.634 148.841 198.241 149.317 198.954 149.538C199.667 149.76 200.437 149.712 201.117 149.404C201.797 149.095 202.341 148.548 202.644 147.865Z" />
<path class="svg-red" d="M199.798 142.541L196.146 142.977C195.96 143 195.772 142.983 195.593 142.929C195.414 142.875 195.248 142.785 195.106 142.663C194.964 142.542 194.848 142.393 194.766 142.225C194.684 142.057 194.637 141.874 194.629 141.687L194.096 129.349L187.173 110.413C186.895 109.825 186.769 109.177 186.805 108.528C186.841 107.879 187.038 107.25 187.379 106.696C187.548 106.429 187.743 106.178 187.959 105.947C188.385 105.487 188.916 105.138 189.506 104.928C190.096 104.718 190.728 104.655 191.348 104.742C191.987 104.827 192.596 105.064 193.125 105.432C193.654 105.8 194.088 106.289 194.391 106.859L198.906 116.332C200.794 120.294 201.686 124.659 201.503 129.045L200.994 141.249C200.98 141.568 200.855 141.873 200.639 142.109C200.424 142.345 200.133 142.497 199.816 142.539L199.798 142.541Z" />
<path class="svg-peach-light" d="M212.769 195.861L209.383 197.349L202.038 184.979L207.036 182.783L212.769 195.861Z" />
<path class="svg-grey-dark" d="M215.074 198.768L204.155 203.566L204.094 203.428C203.849 202.869 203.717 202.268 203.704 201.657C203.691 201.047 203.798 200.441 204.02 199.872C204.241 199.303 204.572 198.784 204.994 198.344C205.416 197.903 205.92 197.55 206.478 197.305L206.479 197.305L213.148 194.374L215.074 198.768Z" />
<path class="svg-peach-light" d="M167.307 199.977H163.609L161.85 185.695L167.308 185.695L167.307 199.977Z" />
<path class="svg-grey-dark" d="M168.25 203.566L156.326 203.566V203.415C156.326 202.805 156.446 202.2 156.679 201.636C156.912 201.073 157.254 200.56 157.685 200.129C158.116 199.697 158.628 199.355 159.191 199.121C159.754 198.888 160.357 198.768 160.967 198.768H160.967L168.25 198.768L168.25 203.566Z" />
<path class="svg-grey-dark" d="M203.312 195.094L182.711 149.063C182.674 148.977 182.611 148.904 182.531 148.856C182.45 148.807 182.357 148.784 182.263 148.791C182.17 148.797 182.081 148.833 182.008 148.893C181.936 148.952 181.883 149.033 181.859 149.124L169.307 193.584C169.224 193.895 169.033 194.167 168.768 194.349C168.503 194.532 168.182 194.614 167.862 194.58L161.006 193.894C160.653 193.857 160.328 193.683 160.101 193.41C159.873 193.137 159.761 192.786 159.788 192.432C161.968 165.278 165.405 139.649 175.703 122.873L175.758 122.783L191.333 125.841L212.127 192.141C212.23 192.482 212.195 192.85 212.03 193.167C211.865 193.483 211.583 193.721 211.245 193.832L204.974 195.85C204.653 195.955 204.304 195.935 203.997 195.795C203.689 195.655 203.445 195.405 203.312 195.094Z" />
<path class="svg-peach-light" d="M183.286 99.2931C187.378 99.2931 190.695 95.9719 190.695 91.875C190.695 87.7781 187.378 84.4569 183.286 84.4569C179.194 84.4569 175.877 87.7781 175.877 91.875C175.877 95.9719 179.194 99.2931 183.286 99.2931Z" />
<path class="svg-red" d="M174.745 124.157L174.651 124.137L174.629 124.044C173.63 119.824 173.607 115.218 174.558 110.356C175.04 107.871 176.383 105.636 178.35 104.045C180.317 102.454 182.781 101.609 185.309 101.658C188.052 101.714 190.67 102.817 192.628 104.742C194.585 106.667 195.734 109.268 195.839 112.013C196.157 120.376 192.743 127.626 192.709 127.698L192.658 127.804L174.745 124.157Z" />
<path class="svg-peach-light" d="M154.884 138.269C155.323 138.204 155.742 138.044 156.112 137.799C156.482 137.555 156.794 137.232 157.026 136.853C157.258 136.475 157.404 136.05 157.455 135.609C157.505 135.168 157.458 134.721 157.317 134.3L165.851 127.706L160.552 125.886L153.261 132.427C152.57 132.71 152.008 133.238 151.68 133.91C151.351 134.581 151.281 135.35 151.481 136.07C151.681 136.79 152.138 137.412 152.765 137.817C153.393 138.222 154.147 138.383 154.884 138.269V138.269Z" />
<path class="svg-red" d="M159.545 133.296C159.268 133.461 158.94 133.52 158.622 133.464C158.305 133.408 158.017 133.24 157.812 132.99L155.468 130.152C155.349 130.008 155.261 129.841 155.209 129.661C155.158 129.481 155.144 129.293 155.169 129.107C155.193 128.922 155.256 128.743 155.353 128.583C155.449 128.423 155.578 128.284 155.73 128.176L165.8 121.046L177.949 104.963C178.292 104.411 178.768 103.954 179.332 103.632C179.896 103.311 180.532 103.136 181.181 103.123C181.497 103.121 181.813 103.149 182.124 103.206C182.741 103.315 183.322 103.573 183.817 103.956C184.313 104.339 184.709 104.836 184.971 105.406C185.246 105.989 185.377 106.63 185.355 107.275C185.332 107.92 185.156 108.55 184.842 109.113L175.846 123.7L175.826 123.732L159.545 133.296Z" />
<path class="svg-grey-dark" d="M184.611 91.4147C184.065 90.5153 182.86 90.2612 181.814 90.3638C180.767 90.4664 179.75 90.8346 178.699 90.8264C175.78 90.8038 173.527 87.2419 174.754 84.5902C175.761 82.4155 178.274 81.4606 180.548 80.7111C185.315 79.1398 190.791 77.6299 195.117 80.1778C196.496 81.0138 197.627 82.2031 198.393 83.6229C199.159 85.0428 199.532 86.6416 199.475 88.2543C199.377 90.2595 198.61 92.3192 199.259 94.2189C200.007 96.4103 202.38 97.5861 204.622 98.1549C208.553 99.152 212.697 98.9913 216.653 99.8856C220.608 100.78 224.661 103.154 225.727 107.071C226.427 109.644 225.697 112.414 224.486 114.79C223.252 117.213 221.536 119.359 219.444 121.096C217.352 122.832 214.928 124.123 212.321 124.889C209.713 125.654 206.977 125.879 204.28 125.549C201.583 125.219 198.981 124.341 196.634 122.969C191.853 120.174 188.401 115.449 186.342 110.302C185.176 107.3 184.354 104.174 183.894 100.986C183.433 98.001 183.824 94.9847 184.659 92.0824C184.698 91.974 184.714 91.8585 184.706 91.7434C184.698 91.6283 184.665 91.5163 184.611 91.4147Z" />
<path class="svg-cream" d="M211.339 204H150.376C150.291 204 150.209 203.966 150.149 203.906C150.089 203.846 150.055 203.764 150.055 203.679C150.055 203.594 150.089 203.512 150.149 203.452C150.209 203.391 150.291 203.357 150.376 203.357H211.339C211.424 203.357 211.505 203.391 211.566 203.452C211.626 203.512 211.66 203.594 211.66 203.679C211.66 203.764 211.626 203.846 211.566 203.906C211.505 203.966 211.424 204 211.339 204Z" />
</svg>
