<svg viewBox="0 0 375 311" fill="none" xmlns="http://www.w3.org/2000/svg">
<g clip-path="url(#clip0)">
<path class="svg-grey" d="M282.398 70.4082H279.733C279.207 70.4082 278.781 70.8339 278.781 71.3591V107.08C278.781 107.605 279.207 108.031 279.733 108.031H282.398C282.923 108.031 283.349 107.605 283.349 107.08V71.3591C283.349 70.8339 282.923 70.4082 282.398 70.4082Z" />
<path class="svg-grey" d="M265.046 0H144.64C135.693 0 128.441 7.24869 128.441 16.1904V294.187C128.441 303.128 135.693 310.377 144.64 310.377H265.046C273.993 310.377 281.246 303.128 281.246 294.187V16.1904C281.246 7.24869 273.993 0 265.046 0Z" />
<path class="svg-white" d="M259.978 8.08441H242.449V10.1918C242.449 11.5035 242.191 12.8024 241.688 14.0143C241.186 15.2261 240.449 16.3271 239.521 17.2544C238.593 18.1817 237.491 18.9171 236.278 19.4186C235.065 19.9201 233.765 20.1779 232.453 20.1772H176.708C175.395 20.1779 174.096 19.9201 172.883 19.4186C171.67 18.9171 170.568 18.1817 169.64 17.2544C168.711 16.3271 167.975 15.2261 167.472 14.0143C166.97 12.8024 166.711 11.5035 166.711 10.1918V8.08441H150.3C147.081 8.08441 143.994 9.36227 141.719 11.6369C139.443 13.9115 138.164 16.9965 138.164 20.2133V290.185C138.164 293.402 139.443 296.487 141.719 298.761C143.994 301.036 147.081 302.314 150.3 302.314H259.978C263.196 302.314 266.283 301.036 268.559 298.761C270.835 296.487 272.113 293.402 272.113 290.185V20.2341C272.116 18.6395 271.804 17.0601 271.195 15.5862C270.587 14.1122 269.693 12.7727 268.566 11.6442C267.439 10.5157 266.1 9.62049 264.626 9.00965C263.153 8.39882 261.573 8.08441 259.978 8.08441Z" />
<path class="svg-cream" d="M209.834 9.26909H191.712C190.824 9.26909 190.104 9.98857 190.104 10.8761V11.9902C190.104 12.8777 190.824 13.5972 191.712 13.5972H209.834C210.722 13.5972 211.442 12.8777 211.442 11.9902V10.8761C211.442 9.98857 210.722 9.26909 209.834 9.26909Z" />
<path class="svg-cream" d="M217.128 13.8912C218.487 13.8912 219.588 12.7908 219.588 11.4334C219.588 10.0759 218.487 8.97552 217.128 8.97552C215.77 8.97552 214.669 10.0759 214.669 11.4334C214.669 12.7908 215.77 13.8912 217.128 13.8912Z" />
<path class="svg-white" d="M205.776 187.889C221.741 187.889 234.682 174.954 234.682 158.999C234.682 143.044 221.741 130.109 205.776 130.109C189.812 130.109 176.87 143.044 176.87 158.999C176.87 174.954 189.812 187.889 205.776 187.889Z" />
<path class="svg-red" d="M243.796 154.965C243.796 162.602 241.53 170.067 237.284 176.417C233.039 182.766 227.005 187.715 219.945 190.637C212.886 193.56 205.118 194.324 197.623 192.834C190.129 191.344 183.245 187.666 177.842 182.266C172.439 176.866 168.76 169.986 167.269 162.495C165.779 155.005 166.544 147.242 169.469 140.186C172.393 133.131 177.345 127.101 183.699 122.858C190.052 118.615 197.522 116.351 205.163 116.351C210.237 116.351 215.26 117.35 219.948 119.291C224.635 121.232 228.894 124.076 232.481 127.661C236.069 131.247 238.914 135.504 240.856 140.189C242.797 144.873 243.796 149.894 243.796 154.965ZM200.697 175.403L229.356 146.761C229.588 146.53 229.772 146.255 229.897 145.953C230.023 145.65 230.087 145.326 230.087 144.999C230.087 144.671 230.023 144.347 229.897 144.045C229.772 143.743 229.588 143.468 229.356 143.237L225.829 139.738C225.599 139.507 225.324 139.323 225.022 139.197C224.72 139.072 224.396 139.007 224.069 139.007C223.742 139.007 223.418 139.072 223.116 139.197C222.813 139.323 222.539 139.507 222.308 139.738L198.934 163.1L188.02 152.166C187.552 151.701 186.918 151.439 186.257 151.439C185.596 151.439 184.963 151.701 184.494 152.166L180.968 155.711C180.502 156.179 180.24 156.813 180.24 157.473C180.24 158.134 180.502 158.767 180.968 159.235L197.172 175.424C197.403 175.656 197.678 175.84 197.98 175.965C198.283 176.091 198.607 176.155 198.935 176.155C199.262 176.155 199.587 176.091 199.889 175.965C200.192 175.84 200.466 175.656 200.698 175.424L200.697 175.403Z" />
<path class="svg-grey" d="M133.225 61.1893H132.825C132.299 61.1893 131.873 61.615 131.873 62.1402V71.3723C131.873 71.8975 132.299 72.3233 132.825 72.3233H133.225C133.75 72.3233 134.176 71.8975 134.176 71.3723V62.1402C134.176 61.615 133.75 61.1893 133.225 61.1893Z" />
<path class="svg-grey" d="M133.433 81.5766H132.741C132.216 81.5766 131.79 82.0024 131.79 82.5275V100.004C131.79 100.529 132.216 100.954 132.741 100.954H133.433C133.959 100.954 134.385 100.529 134.385 100.004V82.5275C134.385 82.0024 133.959 81.5766 133.433 81.5766Z" />
<path class="svg-grey" d="M133.35 107.735H132.783C132.257 107.735 131.831 108.161 131.831 108.686V126.328C131.831 126.854 132.257 127.279 132.783 127.279H133.35C133.875 127.279 134.301 126.854 134.301 126.328V108.686C134.301 108.161 133.875 107.735 133.35 107.735Z" />
<path class="svg-grey-dark" d="M101.224 159.417C101.29 159.481 101.375 159.521 101.466 159.533C101.557 159.545 101.649 159.527 101.729 159.482C101.558 159.484 101.388 159.462 101.224 159.417Z" />
<path class="svg-peach-light" d="M120.32 166.883L119.822 169.597L119.437 171.673L118.737 175.471L111.953 180.218C111.953 180.218 111.341 179.694 110.333 178.87C107.552 176.582 101.709 171.923 97.4174 169.422C96.3137 168.719 95.1195 168.169 93.8676 167.787L120.32 166.883Z" />
<path class="svg-grey" d="M115.343 168.902C115.343 168.902 123.254 170.259 123.717 166.882C124.18 163.506 119.645 161.682 115.802 161.454C111.959 161.227 88.8922 162.811 88.8922 162.811C88.8922 162.811 84.8234 168.235 99.5182 169.143L115.343 168.902Z" />
<path class="svg-grey-dark" d="M132.642 57.4886H91.2605V106.531H132.642V57.4886Z" />
<path class="svg-black" opacity="0.1" d="M132.642 57.7112H91.2605V106.753H132.642V57.7112Z" />
<path class="svg-peach-light" d="M42.7609 141.442C42.0795 141.614 41.2086 142.273 40.2401 143.225C36.0695 147.352 30.0962 157.036 30.0962 157.036C22.4592 147.944 30.9101 140.761 34.5123 138.292C35.3881 137.695 35.9765 137.366 35.9765 137.366L42.7609 141.442Z" />
<path class="svg-peach-light" d="M119.866 72.9669C119.866 72.9669 121.902 87.204 128.912 90.5941C135.921 93.9841 119.866 100.32 119.866 100.32L97.9335 92.1778C97.9335 92.1778 110.371 88.1084 107.883 76.1298L119.866 72.9669Z" />
<path class="svg-peach-light" d="M96.3488 158.62L95.8527 161.325L95.4497 163.409L94.7501 167.207L87.9656 171.949C87.9656 171.949 87.3541 171.431 86.3453 170.606C83.5649 168.318 77.7215 163.659 73.4238 161.158C72.3205 160.454 71.1262 159.904 69.8739 159.524L96.3488 158.62Z" />
<path class="svg-grey-dark" d="M90.4802 161.956C90.4802 161.956 97.5796 162.006 98.0067 158.62C98.4338 155.234 94.1377 153.419 90.4802 153.192C86.8228 152.965 64.6003 154.654 64.6003 154.654C64.6003 154.654 61.4476 161.049 75.4257 161.955L90.4802 161.956Z" />
<path class="svg-grey" d="M140.256 215.146C139.946 214.994 139.635 214.836 139.329 214.683L138.495 213.632L127.554 199.766V200.007C127.48 202.322 126.692 220.672 120.547 222.367C113.99 224.173 106.08 224.627 102.474 212.424C98.8679 200.22 92.2792 173.552 85.5131 171.968L95.5781 163.72C95.5781 163.72 102.242 171.51 104.957 178.967C104.855 178.504 100.254 157.014 104.03 153.211H137.051C137.051 153.211 142.148 167.722 145.642 174.91C148.362 180.49 152.445 193.685 155.073 202.615C157.676 211.432 148.533 219.218 140.256 215.146Z" />
<path class="svg-black" opacity="0.1" d="M139.315 157.263C134.218 160.278 111.84 159.051 104.56 158.56L102.577 158.416C102.363 158.416 102.609 158.296 102.609 158.296L102.813 156.244L108.24 142.461L137.295 125.621C136.706 127.395 136.512 130.109 136.558 133.216C136.693 143.202 139.315 157.263 139.315 157.263Z" />
<path class="svg-cream2" d="M139.315 156.582C134.218 159.597 111.84 158.37 104.56 157.879L102.576 157.74L102.247 157.712L102.609 157.62L104.398 157.157L108.239 141.79L137.295 124.954C136.706 126.728 136.511 129.442 136.558 132.55C136.693 142.526 139.315 156.582 139.315 156.582Z" />
<path class="svg-black" opacity="0.1" d="M136.54 132.54C130.631 133.902 117.628 137.897 112.632 147.546C109.301 153.97 106.497 156.726 104.541 157.879L102.558 157.74C102.571 157.7 102.582 157.66 102.59 157.619L104.379 157.156L108.22 141.789L137.276 124.954C136.694 126.719 136.493 129.433 136.54 132.54Z" />
<path class="svg-black" opacity="0.1" d="M35.9765 137.376L42.7609 141.442C42.0795 141.614 41.2086 142.273 40.2402 143.226C39.6747 141.577 36.1269 139.275 34.5123 138.293C35.3877 137.705 35.9765 137.376 35.9765 137.376Z" />
<path class="svg-black" opacity="0.1" d="M101.349 158.004C101.274 158.043 101.19 158.057 101.107 158.046C101.024 158.034 100.946 157.997 100.885 157.939C101.036 157.983 101.192 158.005 101.349 158.004Z" />
<path class="svg-red" d="M116.702 89.6909C116.702 89.6909 110.594 90.3669 106.298 85.8469C106.298 85.8469 88.225 91.0479 82.1041 102.798C75.9832 114.547 34.3732 137.603 34.3732 137.603C34.3732 137.603 41.6117 141.669 40.9303 143.702L68.2943 127.881C68.2943 127.881 78.0258 120.879 80.7276 119.295C83.4295 117.711 98.3694 107.994 101.535 134.435C104.7 160.876 101.535 157.713 101.535 157.713C101.535 157.713 106.057 159.297 112.615 146.639C119.172 133.981 139.52 131.045 139.52 131.045L140.65 117.715C140.65 117.715 144.687 108.879 141.577 105.211C140.635 104.125 140.009 102.802 139.766 101.385C139.251 97.9995 139.765 92.3584 146.967 87.6715C158.047 80.4371 162.342 74.5647 162.342 74.5647C162.342 74.5647 162.569 70.267 155.785 68.2335C149.001 66.2 121.415 55.1267 121.415 55.1267L120.488 58.9706L142.254 74.3239C142.254 74.3239 131.401 83.1234 122.791 82.9103C122.791 82.9103 124.389 89.4637 116.702 89.6909Z" />
<path class="svg-black" opacity="0.1" d="M120.891 79.1636C120.356 77.352 119.938 75.508 119.64 73.6429L107.656 76.807C108.184 79.0934 108.09 81.4796 107.382 83.7171C109.833 84.3706 112.421 84.287 114.824 83.477C117.227 82.667 119.337 81.1666 120.891 79.1636Z" />
<path class="svg-peach-light" d="M110.937 83.4759C118.054 83.4759 123.824 77.7093 123.824 70.5958C123.824 63.4824 118.054 57.7158 110.937 57.7158C103.819 57.7158 98.0493 63.4824 98.0493 70.5958C98.0493 77.7093 103.819 83.4759 110.937 83.4759Z" />
<path class="svg-black" opacity="0.1" d="M124.955 174.325C124.955 174.325 132.416 189.016 130.154 193.531L124.955 174.325Z" />
<path class="svg-grey-dark" d="M117.79 40.8481C121.368 41.2559 124.765 42.7885 128.287 43.6269C129.167 43.9004 130.104 43.9355 131.002 43.7286C132.369 43.3072 133.481 41.8762 134.899 41.9178C135.772 41.9456 136.544 42.5385 137.263 43.1078C138.415 43.989 139.499 44.9551 140.506 45.998C142.934 48.6331 144.441 52.181 146.655 55.0478C148.87 57.9147 152.029 61.2765 155.176 59.9618C153.035 68.2983 146.359 73.5133 138.773 74.0324C135.747 74.24 132.647 73.6109 129.718 74.4954C128.989 74.7943 128.219 74.9816 127.433 75.051C125.746 75.051 124.389 73.5042 123.337 71.9989C120.871 68.4606 118.92 64.4452 116.145 61.2171C115.218 60.1474 114.147 59.133 112.85 58.9387C111.552 58.7443 110.361 59.3647 109.208 59.9622C107.303 60.9489 105.357 61.9675 103.879 63.6675C102.4 65.3675 101.469 67.8772 102.081 70.1515C102.41 71.3836 103.161 72.4952 103.174 73.7824C103.202 75.8387 101.385 77.3394 101.029 79.3401C100.948 80.1805 100.919 81.025 100.94 81.8689C100.783 84.6095 98.9877 86.8519 97.118 88.5797C96.3859 89.2466 95.5807 89.9691 95.3663 91.0018C95.2226 91.7102 95.3663 92.4552 95.2737 93.174C95.0003 94.9525 93.2254 95.8556 91.6544 96.0873C89.819 96.3589 87.9442 96.1368 86.2232 95.4437C88.4199 94.4056 89.7731 91.4515 89.2633 88.8068C88.5636 85.1386 84.875 82.5034 85.1916 78.7708C85.365 77.6255 85.7086 76.5125 86.2112 75.4687C87.015 73.4516 87.5992 71.3539 87.9537 69.2118C88.2317 67.5583 88.3663 65.8031 87.8469 64.2239C87.3837 62.788 86.4152 61.6444 85.5946 60.4306C84.4827 58.7794 83.6047 56.9824 82.9858 55.0906C82.7615 54.5294 82.676 53.9225 82.7365 53.3212C82.9224 52.6111 83.3181 51.9735 83.872 51.4916C85.8879 49.3739 88.0426 47.1752 90.7445 46.5685C92.0336 46.3546 93.3447 46.3048 94.6463 46.4203C96.9101 46.4912 99.1761 46.3952 101.426 46.1329C103.279 45.9153 106.411 45.9431 107.983 44.7435C109.447 43.6223 110.272 42.2147 112.075 41.5017C113.9 40.8255 115.862 40.6014 117.793 40.8485L117.79 40.8481Z" />
<path class="svg-grey" d="M103.081 311C109.895 311 115.419 310.067 115.419 308.915C115.419 307.763 109.895 306.83 103.081 306.83C96.2676 306.83 90.744 307.763 90.744 308.915C90.744 310.067 96.2676 311 103.081 311Z" />
<path class="svg-grey" d="M108.184 305.505C108.746 305.045 109.156 304.426 109.359 303.729C109.448 303.38 109.416 303.01 109.266 302.682C109.116 302.353 108.859 302.085 108.537 301.923C107.782 301.635 106.975 302.159 106.364 302.687C105.754 303.214 105.051 303.818 104.25 303.705C104.663 303.332 104.971 302.859 105.146 302.332C105.321 301.805 105.356 301.242 105.248 300.697C105.212 300.471 105.115 300.259 104.968 300.084C104.553 299.636 103.79 299.826 103.29 300.182C101.695 301.303 101.25 303.469 101.241 305.416C101.078 304.714 101.216 303.981 101.21 303.27C101.204 302.558 101.011 301.737 100.4 301.36C100.023 301.158 99.5998 301.058 99.1725 301.071C98.4545 301.044 97.6568 301.118 97.1657 301.642C96.552 302.292 96.7178 303.384 97.2455 304.095C97.7731 304.807 98.58 305.264 99.3229 305.756C99.9167 306.11 100.423 306.592 100.805 307.168C100.851 307.249 100.888 307.334 100.915 307.423H105.398C106.409 306.911 107.346 306.265 108.184 305.503V305.505Z" />
<path class="svg-red" d="M346.747 56.1997C346.747 56.1997 309.035 66.9485 322.497 91.281C322.497 91.281 323.23 96.1608 328.118 96.7732C328.118 96.7732 327.509 94.8346 331.463 94.1793C332.866 93.933 334.235 93.5245 335.544 92.9619C337.31 92.2076 338.783 90.8999 339.741 89.2359C339.741 89.2359 348.612 81.3014 346.673 62.9294C346.673 62.9294 348.356 58.1808 347.903 57.2709L342.608 62.1211C342.608 62.1211 346.323 65.865 345.945 70.1928C345.945 70.1928 342.902 62.1985 341.766 62.7947C341.538 62.9146 339.078 65.4878 339.078 65.4878C339.078 65.4878 345.497 72.0249 344.738 78.6857C344.738 78.6857 342.389 68.6745 338.132 66.4557L334.648 70.5565C334.648 70.5565 341.777 77.1352 341.198 84.7522C341.198 84.7522 338.378 74.3739 333.942 71.5041L331.061 75.999C331.061 75.999 337.888 82.5501 337.365 88.8828C337.365 88.8828 332.896 77.2219 330.473 77.0736C330.473 77.0736 328.076 81.3639 327.987 82.8039C327.987 82.8039 332.78 87.622 332.144 91.2736C332.144 91.2736 328.332 83.796 327.456 84.0543C327.456 84.0543 325.823 90.47 326.721 94.1645C326.721 94.1645 325.003 88.8126 326.446 83.8579C326.446 83.8579 323.297 85.6095 322.105 88.4645C322.105 88.4645 321.35 84.602 326.858 82.302C326.858 82.302 328.332 77.3508 329.012 76.8461C329.012 76.8461 323.259 78.3393 320.399 81.0351C320.399 81.0351 322.16 76.5202 329.737 75.6307L332.534 71.0474C332.534 71.0474 324.821 72.6293 322.089 74.8358C322.089 74.8358 324.6 70.5054 333.334 69.9485L336.708 65.8963C336.708 65.8963 329.956 66.7513 326.386 68.5378C326.386 68.5378 329.584 65.0251 337.716 64.7587L340.303 62.309C340.303 62.309 335.389 63.0211 333.991 63.3498C332.594 63.6784 332.394 63.3347 332.394 63.3347C335.135 61.8264 338.242 61.1083 341.368 61.2605C341.368 61.2605 347 56.5689 346.747 56.1997Z" />
<path class="svg-grey" d="M317.553 6.46581C317.553 6.46581 299.886 5.40154 301.95 17.7896C301.95 17.7896 301.535 19.9783 303.522 20.9724C303.522 20.9724 303.554 20.0431 305.34 20.3637C305.974 20.4703 306.618 20.5016 307.259 20.4567C308.127 20.3993 308.951 20.0598 309.607 19.49C309.607 19.49 314.582 17.4362 316.516 9.31398C316.516 9.31398 317.943 7.54379 317.887 7.08827L314.902 8.36141C314.902 8.36141 315.921 10.5128 315.121 12.3017C315.121 12.3017 315.023 8.43989 314.451 8.52875C314.335 8.52875 312.898 9.2762 312.898 9.2762C312.898 9.2762 314.656 13.0259 313.331 15.749C313.331 15.749 313.833 11.1303 312.35 9.54569L310.248 10.7914C310.248 10.7914 312.299 14.6619 310.909 17.8219C310.909 17.8219 311.267 12.9756 309.807 11.0892L307.905 12.5761C307.905 12.5761 309.83 16.391 308.658 19.0124C308.658 19.0124 308.501 13.3713 307.491 12.9441C307.491 12.9441 305.827 14.4124 305.571 15.0165C305.571 15.0165 306.891 17.8045 306.073 19.2496C306.073 19.2496 305.571 15.4903 305.143 15.4708C305.143 15.4708 303.484 17.9623 303.312 19.6528C303.395 18.0758 303.888 16.5478 304.744 15.22C303.786 15.4013 302.902 15.8584 302.201 16.5351C302.201 16.5351 302.461 14.774 305.153 14.6208C305.153 14.6208 306.548 12.7298 306.892 12.6135C306.892 12.6135 304.214 12.3905 302.591 13.1118C302.591 13.1118 304.018 11.4529 307.38 12.2057L309.24 10.6722C309.24 10.6722 305.712 10.203 304.216 10.7204C304.216 10.7204 305.937 9.25211 309.744 10.3209L311.79 9.09889C311.79 9.09889 308.782 8.45318 306.992 8.68364C306.992 8.68364 308.884 7.66587 312.39 8.76669L313.855 8.11143C313.855 8.11143 311.653 7.67916 311.005 7.6094C310.356 7.53964 310.326 7.36316 310.326 7.36316C311.721 7.13111 313.154 7.29201 314.464 7.82782C314.464 7.82782 317.608 6.65932 317.553 6.46581Z" />
<path class="svg-grey" d="M71.5186 247.878C71.5186 247.878 61.2239 262.275 72.8133 267.113C72.8133 267.113 74.4461 268.629 76.3444 267.475C76.3444 267.475 75.5746 266.953 76.7953 265.612C77.2228 265.131 77.5919 264.602 77.8949 264.035C78.3074 263.27 78.4583 262.391 78.3245 261.533C78.3245 261.533 79.2299 256.227 73.3792 250.271C73.3792 250.271 72.6388 248.121 72.2231 247.926L71.7144 251.131C71.7144 251.131 74.078 251.413 75.1678 253.041C75.1678 253.041 71.8452 251.07 71.6165 251.602C71.5546 251.7 71.4238 253.315 71.4238 253.315C71.4238 253.315 75.534 253.82 77.1359 256.39C77.1359 256.39 73.4909 253.509 71.3604 253.922L71.2982 256.365C71.2982 256.365 75.6664 256.686 77.6036 259.544C77.6036 259.544 73.6895 256.663 71.3155 256.897L71.5638 259.298C71.5638 259.298 75.8182 259.696 77.4155 262.082C77.4155 262.082 72.5539 259.217 71.6554 259.844C71.6554 259.844 72.014 262.035 72.3897 262.573C72.3897 262.573 75.4529 262.937 76.2418 264.398C76.2418 264.398 72.7909 262.825 72.5471 263.176C72.5471 263.176 73.7747 265.907 75.115 266.951C73.8236 266.042 72.7919 264.812 72.1221 263.381C71.7665 264.289 71.6836 265.281 71.8838 266.235C71.8838 266.235 70.5308 265.078 71.8323 262.716C71.8323 262.716 70.9722 260.53 71.0567 260.176C71.0567 260.176 69.4441 262.326 69.1921 264.084C69.1921 264.084 68.5459 261.993 70.9709 259.546L70.6609 257.156C70.6609 257.156 68.388 259.894 68.0309 261.436C68.0309 261.436 67.7019 259.198 70.6317 256.541L70.6844 254.159C70.6844 254.159 68.5382 256.363 67.7818 258.002C67.7818 258.002 67.9258 255.858 70.7221 253.474L70.9458 251.885C70.9458 251.885 69.4089 253.521 69.0052 254.032C68.6015 254.544 68.4357 254.476 68.4357 254.476C68.9812 253.171 69.8793 252.043 71.0292 251.219C71.0292 251.219 71.7114 247.935 71.5186 247.878Z" />
</g>
<defs>
<linearGradient id="paint0_linear" x1="101.479" y1="159.537" x2="101.479" y2="159.417" gradientUnits="userSpaceOnUse">
<stop stop-color="#808080" stop-opacity="0.251"/>
<stop offset="0.54" stop-color="#808080" stop-opacity="0.122"/>
<stop offset="1" stop-color="#808080" stop-opacity="0.102"/>
</linearGradient>
<clipPath id="clip0">
<rect class="svg-white" width="375" height="311" />
</clipPath>
</defs>
</svg>
