<svg id="svg-create-account" width="208" height="171" viewBox="0 0 208 171" fill="none" xmlns="http://www.w3.org/2000/svg">
<path class="svg-white" d="M30.5239 145.831C43.6517 139.002 70.7896 127.546 105.044 127.546C139.299 127.546 166.437 139.002 179.565 145.831C192.345 152.479 202.624 160.318 207.465 166.713C209.23 164.303 206.64 121.419 199.471 104.412C188.963 79.4185 171.338 58.0926 148.805 43.1053C126.273 28.1181 99.8341 20.1358 72.801 20.1585C63.1855 20.1321 53.6603 22.0198 44.7768 25.7122C35.8932 29.4046 27.8277 34.8285 21.0472 41.6698C20.7592 41.9588 20.4739 42.2498 20.1913 42.5427C5.02015 58.2689 -2.06369 80.1481 0.522645 101.881C2.36401 117.355 6.90209 149.718 13.3142 156.581C18.7438 152.525 24.5003 148.929 30.5239 145.831Z" />
<path class="svg-white" d="M106.57 138.159C118.615 138.159 128.38 136.115 128.38 133.593C128.38 131.072 118.615 129.028 106.57 129.028C94.5245 129.028 84.7598 131.072 84.7598 133.593C84.7598 136.115 94.5245 138.159 106.57 138.159Z" />
<path class="svg-grey" d="M128.726 30.438C108.733 30.4362 93.0721 26.7991 93.0725 22.1578C93.0728 19.3751 98.6223 16.8928 108.298 15.3476C108.333 15.3419 108.368 15.3431 108.402 15.3512C108.436 15.3592 108.469 15.3739 108.497 15.3945C108.526 15.4151 108.55 15.4411 108.568 15.4711C108.586 15.5011 108.599 15.5344 108.604 15.5691C108.61 15.6039 108.608 15.6394 108.6 15.6736C108.592 15.7078 108.577 15.7401 108.556 15.7685C108.536 15.7969 108.51 15.8209 108.48 15.8392C108.45 15.8575 108.416 15.8697 108.382 15.875C99.2671 17.3307 93.6049 19.7381 93.6047 22.1578C93.6043 26.355 109.688 29.9023 128.726 29.904C147.765 29.9057 163.849 26.3613 163.85 22.1642C163.85 19.7343 158.152 17.32 148.979 15.8636C148.944 15.8582 148.911 15.846 148.881 15.8277C148.851 15.8094 148.825 15.7854 148.805 15.757C148.784 15.7286 148.769 15.6964 148.761 15.6622C148.753 15.6281 148.752 15.5926 148.757 15.5579C148.763 15.5233 148.775 15.49 148.793 15.46C148.811 15.4301 148.835 15.4041 148.864 15.3835C148.892 15.3628 148.924 15.3481 148.958 15.3399C148.992 15.3318 149.028 15.3305 149.062 15.3361C158.798 16.882 164.382 19.3708 164.382 22.1642C164.381 26.8055 148.72 30.4398 128.726 30.438Z" />
<path class="svg-red" d="M111.038 31.9952C112.846 35.1037 115.437 37.6811 118.55 39.4695C121.663 41.2579 125.19 42.1946 128.777 42.1859C132.364 42.1771 135.886 41.2233 138.99 39.4197C142.095 37.6161 144.673 35.0261 146.466 31.9088C134.667 32.5891 122.84 32.6179 111.038 31.9952Z" />
<path class="svg-red" d="M148.428 26.2006C149.3 23.1324 149.449 19.9027 148.862 16.767C148.275 13.6312 146.969 10.6756 145.047 8.13391C143.125 5.59226 140.64 3.53438 137.788 2.12313C134.937 0.711889 131.797 -0.0139789 128.618 0.00297588C125.438 0.0199307 122.306 0.779245 119.47 2.22082C116.633 3.6624 114.17 5.74667 112.275 8.30867C110.38 10.8707 109.106 13.8401 108.552 16.9819C107.998 20.1237 108.181 23.3517 109.086 26.4104C122.154 28.048 135.378 27.9775 148.428 26.2006Z" />
<path class="svg-white" d="M133.518 11.481C134.841 11.481 135.913 10.4051 135.913 9.07799C135.913 7.75085 134.841 6.67499 133.518 6.67499C132.196 6.67499 131.123 7.75085 131.123 9.07799C131.123 10.4051 132.196 11.481 133.518 11.481Z" />
<path class="svg-white" d="M121.011 22.9613C123.215 22.9613 125.002 21.1682 125.002 18.9563C125.002 16.7444 123.215 14.9513 121.011 14.9513C118.807 14.9513 117.02 16.7444 117.02 18.9563C117.02 21.1682 118.807 22.9613 121.011 22.9613Z" />
<path class="svg-white" d="M128.729 40.317C130.051 40.317 131.124 39.2411 131.124 37.914C131.124 36.5868 130.051 35.511 128.729 35.511C127.406 35.511 126.334 36.5868 126.334 37.914C126.334 39.2411 127.406 40.317 128.729 40.317Z" />
<path class="svg-cream" d="M107.187 136.015C115.358 136.015 121.982 134.913 121.982 133.554C121.982 132.195 115.358 131.093 107.187 131.093C99.016 131.093 92.392 132.195 92.392 133.554C92.392 134.913 99.016 136.015 107.187 136.015Z" />
<path class="svg-cream" d="M57.8775 162.034C71.625 162.034 82.7696 159.701 82.7696 156.823C82.7696 153.945 71.625 151.612 57.8775 151.612C44.1299 151.612 32.9854 153.945 32.9854 156.823C32.9854 159.701 44.1299 162.034 57.8775 162.034Z" />
<path class="svg-cream" d="M159.254 171C179.752 171 196.369 167.521 196.369 163.23C196.369 158.939 179.752 155.461 159.254 155.461C138.755 155.461 122.138 158.939 122.138 163.23C122.138 167.521 138.755 171 159.254 171Z" />
<path class="svg-grey-dark" d="M82.1438 52.6203C82.1438 57.3391 86.492 56.6253 91.8557 56.6253C97.2194 56.6253 101.568 57.3391 101.568 52.6203C101.568 47.9016 99.4436 39.5374 91.8557 39.5374C84.0064 39.5374 82.1438 47.9016 82.1438 52.6203Z" />
<path class="svg-peach-light" d="M70.2433 92.5777C70.0487 92.2066 69.9376 91.7972 69.9178 91.3784C69.8979 90.9595 69.9699 90.5414 70.1285 90.1535C70.2871 89.7655 70.5286 89.4172 70.8359 89.133C71.1431 88.8489 71.5088 88.6357 71.907 88.5087L83.0334 64.8902L88.123 68.4714L75.5857 90.5616C75.754 91.2471 75.6659 91.9707 75.3381 92.5953C75.0102 93.22 74.4654 93.7022 73.8069 93.9508C73.1484 94.1993 72.4219 94.1968 71.7651 93.9437C71.1083 93.6906 70.5668 93.2046 70.2433 92.5777V92.5777Z" />
<path class="svg-peach-light" d="M110.645 138.22L107.58 139.34L101.817 128.009L106.341 126.356L110.645 138.22Z" />
<path class="svg-grey-dark" d="M105.072 139.261L110.983 137.101L112.339 140.836L102.705 144.356C102.527 143.866 102.447 143.345 102.47 142.823C102.492 142.302 102.617 141.79 102.837 141.317C103.057 140.844 103.367 140.419 103.751 140.066C104.134 139.713 104.583 139.44 105.072 139.261Z"/>
<path class="svg-grey-dark" d="M102.277 131.053L90.6 110.547C90.4872 110.348 90.429 110.123 90.4315 109.895C90.4339 109.667 90.4968 109.443 90.6138 109.247L95.8722 100.453C95.9969 100.244 96.178 100.075 96.3944 99.9659C96.6109 99.8564 96.8539 99.8108 97.0952 99.8343C97.3365 99.8578 97.5661 99.9495 97.7576 100.099C97.949 100.248 98.0943 100.449 98.1766 100.677L108.118 128.303C108.228 128.604 108.221 128.935 108.099 129.231C107.978 129.527 107.75 129.767 107.462 129.903L103.939 131.577C103.769 131.658 103.583 131.7 103.395 131.7C103.169 131.7 102.946 131.64 102.75 131.527C102.554 131.413 102.391 131.25 102.277 131.053Z"/>
<path class="svg-peach-light" d="M91.4412 56.3692C95.0505 56.3692 97.9764 53.4332 97.9764 49.8114C97.9764 46.1896 95.0505 43.2536 91.4412 43.2536C87.8319 43.2536 84.906 46.1896 84.906 49.8114C84.906 53.4332 87.8319 56.3692 91.4412 56.3692Z" />
<path class="svg-red" d="M82.1457 79.5155C76.9991 68.0643 82.1875 61.6642 84.6571 59.4443C85.3684 58.8039 86.2905 58.45 87.2461 58.4507H96.4523C97.1134 58.4506 97.7635 58.6202 98.3409 58.9432C98.9184 59.2663 99.4039 59.7321 99.7515 60.2964C100.099 60.8607 100.297 61.5048 100.327 62.1675C100.357 62.8302 100.217 63.4896 99.9213 64.0829L93.767 76.434L82.1957 79.6271L82.1457 79.5155Z"/>
<path class="svg-peach-light" d="M89.5883 141.317L86.3262 141.316L84.7744 128.69L89.5889 128.691L89.5883 141.317Z" />
<path class="svg-grey-dark" d="M83.9961 140.381H90.2872V144.356H80.035C80.035 143.302 80.4524 142.291 81.1952 141.545C81.938 140.8 82.9456 140.381 83.9961 140.381Z" />
<path class="svg-grey-dark" d="M88.206 136.496L82.9833 135.892C82.8142 135.872 82.6507 135.819 82.5024 135.736C82.354 135.652 82.2238 135.539 82.1192 135.405C82.0146 135.27 81.9378 135.116 81.8932 134.951C81.8487 134.786 81.8372 134.614 81.8596 134.445L86.5209 99.2276C86.5371 99.1049 86.5306 98.9803 86.5015 98.86L81.8165 79.4639C81.7722 79.285 81.7671 79.0986 81.8018 78.9176C81.8364 78.7366 81.9098 78.5653 82.017 78.4156C82.7435 77.4105 85.2328 75.0683 92.6374 75.0239H92.6454C92.892 75.024 93.1333 75.0951 93.3408 75.2289C93.5482 75.3627 93.7129 75.5535 93.8154 75.7786L94.8031 77.959C94.8766 78.1208 94.9917 78.2602 95.1365 78.3628C96.496 79.3285 103.082 84.7489 99.2149 96.6492C95.414 108.346 90.5441 131.053 89.6064 135.487C89.5466 135.775 89.3896 136.033 89.162 136.219C88.9343 136.404 88.6498 136.506 88.3565 136.505C88.3062 136.505 88.256 136.502 88.206 136.496Z" />
<path class="svg-peach-light" d="M114.186 51.4574C114.198 51.6046 114.223 51.7505 114.258 51.8939L105.385 61.6948L102.251 61.0171L100.614 65.6292L106.045 67.37C106.484 67.5106 106.957 67.5046 107.392 67.3529C107.827 67.2012 108.201 66.9119 108.459 66.5286L116.846 54.0342C117.412 54.0595 117.973 53.9111 118.454 53.6087C118.934 53.3063 119.312 52.8643 119.536 52.3414C119.76 51.8186 119.82 51.2397 119.708 50.6817C119.596 50.1237 119.318 49.6131 118.91 49.2178C118.502 48.8225 117.983 48.5613 117.424 48.4688C116.864 48.3763 116.29 48.457 115.777 48.7001C115.264 48.9432 114.837 49.3373 114.553 49.8298C114.268 50.3223 114.14 50.89 114.186 51.4574H114.186Z" />
<path class="svg-red" d="M105.116 62.1103L103.059 67.8167C103.001 67.979 102.908 68.1268 102.788 68.25C102.667 68.3731 102.521 68.4688 102.361 68.5304C102.2 68.592 102.028 68.6181 101.856 68.6069C101.684 68.5958 101.517 68.5476 101.366 68.4657L96.0579 65.5963C95.2315 65.2913 94.5593 64.6698 94.1889 63.8682C93.8185 63.0666 93.78 62.1503 94.082 61.3203C94.384 60.4902 95.0017 59.8143 95.7996 59.4407C96.5976 59.0671 97.5107 59.0263 98.3385 59.3273L104.229 60.524C104.397 60.5584 104.556 60.6287 104.696 60.7304C104.835 60.8321 104.95 60.9626 105.034 61.1131C105.119 61.2637 105.17 61.4307 105.184 61.6027C105.198 61.7748 105.175 61.9479 105.116 62.1103V62.1103Z" />
<path class="svg-grey-dark" d="M99.439 49.4164H96.8542L95.7139 46.2124L95.4859 49.4164H94.2504L93.5852 47.5474L93.4522 49.4164H84.2725C84.2725 47.5752 85.0013 45.8095 86.2987 44.5076C87.5961 43.2057 89.3557 42.4744 91.1905 42.4744H92.5209C94.3557 42.4744 96.1153 43.2057 97.4127 44.5076C98.7101 45.8095 99.439 47.5752 99.439 49.4164Z" />
<path class="svg-pink" d="M167.483 95.0946H166.998V94.6087C166.998 94.443 166.933 94.2841 166.816 94.1669C166.699 94.0497 166.541 93.9839 166.376 93.9839C166.211 93.9839 166.052 94.0497 165.935 94.1669C165.819 94.2841 165.753 94.443 165.753 94.6087V95.0946H165.269C165.104 95.0946 164.945 95.1604 164.828 95.2776C164.712 95.3948 164.646 95.5537 164.646 95.7194C164.646 95.8851 164.712 96.044 164.828 96.1612C164.945 96.2783 165.104 96.3442 165.269 96.3442H165.753V96.8301C165.753 96.9958 165.819 97.1547 165.935 97.2719C166.052 97.3891 166.211 97.4549 166.376 97.4549C166.541 97.4549 166.699 97.3891 166.816 97.2719C166.933 97.1547 166.998 96.9958 166.998 96.8301V96.3442H167.483C167.648 96.3442 167.806 96.2783 167.923 96.1612C168.04 96.044 168.105 95.8851 168.105 95.7194C168.105 95.5537 168.04 95.3948 167.923 95.2776C167.806 95.1604 167.648 95.0946 167.483 95.0946Z" />
<path class="svg-red" d="M26.1947 62.7876H25.7104V62.3017C25.7104 62.2196 25.6943 62.1384 25.663 62.0626C25.6317 61.9868 25.5859 61.9179 25.5281 61.8599C25.4702 61.8019 25.4016 61.7559 25.3261 61.7245C25.2505 61.6931 25.1696 61.6769 25.0878 61.6769C25.006 61.6769 24.9251 61.6931 24.8495 61.7245C24.774 61.7559 24.7053 61.8019 24.6475 61.8599C24.5897 61.9179 24.5439 61.9868 24.5126 62.0626C24.4813 62.1384 24.4652 62.2196 24.4652 62.3017V62.7876H23.9809C23.8158 62.7876 23.6574 62.8535 23.5406 62.9706C23.4239 63.0878 23.3583 63.2467 23.3583 63.4124C23.3583 63.5781 23.4239 63.737 23.5406 63.8542C23.6574 63.9714 23.8158 64.0372 23.9809 64.0372H24.4652V64.5231C24.4652 64.6052 24.4813 64.6864 24.5126 64.7622C24.5439 64.838 24.5897 64.9069 24.6475 64.9649C24.7053 65.0229 24.774 65.069 24.8495 65.1004C24.9251 65.1317 25.006 65.1479 25.0878 65.1479C25.1696 65.1479 25.2505 65.1317 25.3261 65.1004C25.4016 65.069 25.4702 65.0229 25.5281 64.9649C25.5859 64.9069 25.6317 64.838 25.663 64.7622C25.6943 64.6864 25.7104 64.6052 25.7104 64.5231V64.0372H26.1947C26.3598 64.0372 26.5182 63.9714 26.6349 63.8542C26.7517 63.737 26.8173 63.5781 26.8173 63.4124C26.8173 63.2467 26.7517 63.0878 26.6349 62.9706C26.5182 62.8535 26.3598 62.7876 26.1947 62.7876Z" />
</svg>
