<svg width="150" height="42" viewBox="0 0 150 42" fill="none" xmlns="http://www.w3.org/2000/svg">
<g>
<rect class="svg-red" width="10.3448" height="10.3448" />
<rect class="svg-red" y="14.6552" width="10.3448" height="10.3448" />
<rect class="svg-red" x="14.6552" width="10.3448" height="10.3448" />
<rect class="svg-red" x="14.6552" y="14.6552" width="10.3448" height="10.3448" />
</g>
<g>
<path class="svg-black" d="M47.856 8.416C47.6853 7.75467 47.4507 7.14667 47.152 6.592C46.8533 6.03733 46.4693 5.55733 46 5.152C45.5307 4.74667 44.976 4.43733 44.336 4.224C43.7173 3.98933 42.992 3.872 42.16 3.872C40.944 3.872 39.888 4.11733 38.992 4.608C38.1173 5.09867 37.4027 5.76 36.848 6.592C36.2933 7.40267 35.8773 8.33067 35.6 9.376C35.344 10.4213 35.216 11.488 35.216 12.576C35.216 13.664 35.344 14.7307 35.6 15.776C35.8773 16.8213 36.2933 17.76 36.848 18.592C37.4027 19.4027 38.1173 20.0533 38.992 20.544C39.888 21.0347 40.944 21.28 42.16 21.28C43.056 21.28 43.8453 21.1307 44.528 20.832C45.2107 20.512 45.7973 20.0853 46.288 19.552C46.7787 18.9973 47.1627 18.3573 47.44 17.632C47.7173 16.9067 47.8987 16.128 47.984 15.296H51.888C51.8027 16.6613 51.504 17.9093 50.992 19.04C50.5013 20.1707 49.8293 21.152 48.976 21.984C48.1227 22.7947 47.12 23.424 45.968 23.872C44.816 24.32 43.5467 24.544 42.16 24.544C40.4533 24.544 38.9173 24.2347 37.552 23.616C36.208 22.976 35.0667 22.112 34.128 21.024C33.1893 19.936 32.464 18.6667 31.952 17.216C31.4613 15.7653 31.216 14.2187 31.216 12.576C31.216 10.9547 31.4613 9.41867 31.952 7.968C32.464 6.51733 33.1893 5.248 34.128 4.16C35.0667 3.072 36.208 2.208 37.552 1.568C38.9173 0.927999 40.4533 0.608 42.16 0.608C43.44 0.608 44.6453 0.789333 45.776 1.152C46.9067 1.49333 47.8987 2.00533 48.752 2.688C49.6267 3.34933 50.3307 4.16 50.864 5.12C51.3973 6.08 51.728 7.17867 51.856 8.416H47.856ZM55.0258 1.152H59.0258V24H55.0258V1.152ZM61.256 1.152H79.752V4.608H72.488V24H68.488V4.608H61.256V1.152ZM87.8528 15.04L79.2767 1.152H83.9168L89.9648 11.392L95.9167 1.152H100.397L91.8528 15.04V24H87.8528V15.04Z" />
<path class="svg-red" d="M102.087 1.152H107.719L114.023 19.04H114.087L120.231 1.152H125.799V24H121.991V6.368H121.927L115.591 24H112.295L105.959 6.368H105.895V24H102.087V1.152ZM130.088 1.152H139.56C141.31 1.152 142.824 1.45067 144.104 2.048C145.384 2.64533 146.43 3.46667 147.24 4.512C148.051 5.536 148.648 6.74133 149.032 8.128C149.438 9.51467 149.64 10.9973 149.64 12.576C149.64 14.1547 149.438 15.6373 149.032 17.024C148.648 18.4107 148.051 19.6267 147.24 20.672C146.43 21.696 145.384 22.5067 144.104 23.104C142.824 23.7013 141.31 24 139.56 24H130.088V1.152ZM134.088 20.736H138.024C139.582 20.736 140.851 20.5333 141.832 20.128C142.835 19.7013 143.614 19.1253 144.168 18.4C144.744 17.6533 145.128 16.7893 145.32 15.808C145.534 14.8053 145.64 13.728 145.64 12.576C145.64 11.424 145.534 10.3573 145.32 9.376C145.128 8.37333 144.744 7.50933 144.168 6.784C143.614 6.03733 142.835 5.46133 141.832 5.056C140.851 4.62933 139.582 4.416 138.024 4.416H134.088V20.736Z" />
</g>
<path class="svg-black" d="M10.125 36.95V30.29H7.77V36.95C7.77 37.75 7.61 38.34 7.29 38.72C6.97 39.09 6.39 39.275 5.55 39.275C5.07 39.275 4.685 39.21 4.395 39.08C4.115 38.94 3.895 38.765 3.735 38.555C3.575 38.335 3.47 38.085 3.42 37.805C3.37 37.525 3.345 37.24 3.345 36.95V30.29H0.99V36.95C0.99 38.41 1.385 39.49 2.175 40.19C2.975 40.89 4.1 41.24 5.55 41.24C6.98 41.24 8.1 40.89 8.91 40.19C9.72 39.48 10.125 38.4 10.125 36.95ZM18.3082 35.135V32.12H20.8882C21.4282 32.12 21.8332 32.24 22.1032 32.48C22.3732 32.71 22.5082 33.085 22.5082 33.605C22.5082 34.145 22.3732 34.535 22.1032 34.775C21.8332 35.015 21.4282 35.135 20.8882 35.135H18.3082ZM15.9532 30.29V41H18.3082V36.815H20.6632C21.2532 36.815 21.6782 36.945 21.9382 37.205C22.1982 37.465 22.3682 37.875 22.4482 38.435C22.5082 38.865 22.5532 39.315 22.5832 39.785C22.6132 40.255 22.6932 40.66 22.8232 41H25.1782C25.0682 40.85 24.9832 40.67 24.9232 40.46C24.8732 40.24 24.8332 40.01 24.8032 39.77C24.7832 39.53 24.7682 39.295 24.7582 39.065C24.7482 38.835 24.7382 38.635 24.7282 38.465C24.7082 38.195 24.6682 37.925 24.6082 37.655C24.5582 37.385 24.4732 37.14 24.3532 36.92C24.2332 36.69 24.0782 36.495 23.8882 36.335C23.6982 36.165 23.4582 36.04 23.1682 35.96V35.93C23.7682 35.69 24.1982 35.34 24.4582 34.88C24.7282 34.42 24.8632 33.875 24.8632 33.245C24.8632 32.835 24.7882 32.455 24.6382 32.105C24.4982 31.745 24.2882 31.43 24.0082 31.16C23.7382 30.89 23.4082 30.68 23.0182 30.53C22.6382 30.37 22.2082 30.29 21.7282 30.29H15.9532ZM38.3184 39.785L38.5584 41H40.0584V35.21H35.5584V36.965H37.9284C37.8584 37.715 37.6084 38.29 37.1784 38.69C36.7584 39.08 36.1584 39.275 35.3784 39.275C34.8484 39.275 34.3984 39.175 34.0284 38.975C33.6584 38.765 33.3584 38.49 33.1284 38.15C32.8984 37.81 32.7284 37.43 32.6184 37.01C32.5184 36.58 32.4684 36.14 32.4684 35.69C32.4684 35.22 32.5184 34.765 32.6184 34.325C32.7284 33.885 32.8984 33.495 33.1284 33.155C33.3584 32.805 33.6584 32.53 34.0284 32.33C34.3984 32.12 34.8484 32.015 35.3784 32.015C35.9484 32.015 36.4334 32.165 36.8334 32.465C37.2334 32.765 37.5034 33.215 37.6434 33.815H39.8934C39.8334 33.205 39.6684 32.665 39.3984 32.195C39.1284 31.725 38.7834 31.33 38.3634 31.01C37.9534 30.69 37.4884 30.45 36.9684 30.29C36.4584 30.12 35.9284 30.035 35.3784 30.035C34.5584 30.035 33.8184 30.18 33.1584 30.47C32.5084 30.76 31.9584 31.16 31.5084 31.67C31.0584 32.18 30.7134 32.78 30.4734 33.47C30.2334 34.15 30.1134 34.89 30.1134 35.69C30.1134 36.47 30.2334 37.2 30.4734 37.88C30.7134 38.55 31.0584 39.135 31.5084 39.635C31.9584 40.135 32.5084 40.53 33.1584 40.82C33.8184 41.1 34.5584 41.24 35.3784 41.24C35.8984 41.24 36.4134 41.135 36.9234 40.925C37.4334 40.705 37.8984 40.325 38.3184 39.785ZM45.7602 30.29V41H53.8902V39.02H48.1152V36.395H53.3052V34.565H48.1152V32.27H53.7702V30.29H45.7602ZM59.2868 30.29V41H61.4918V33.83H61.5218L65.9768 41H68.3318V30.29H66.1268V37.475H66.0968L61.6268 30.29H59.2868ZM76.5749 32.27V41H78.9299V32.27H82.1399V30.29H73.3649V32.27H76.5749ZM102.29 33.89H104.57C104.5 33.27 104.33 32.72 104.06 32.24C103.79 31.76 103.445 31.36 103.025 31.04C102.615 30.71 102.145 30.46 101.615 30.29C101.095 30.12 100.54 30.035 99.9496 30.035C99.1296 30.035 98.3896 30.18 97.7296 30.47C97.0796 30.76 96.5296 31.16 96.0796 31.67C95.6296 32.18 95.2846 32.78 95.0446 33.47C94.8046 34.15 94.6846 34.89 94.6846 35.69C94.6846 36.47 94.8046 37.2 95.0446 37.88C95.2846 38.55 95.6296 39.135 96.0796 39.635C96.5296 40.135 97.0796 40.53 97.7296 40.82C98.3896 41.1 99.1296 41.24 99.9496 41.24C100.61 41.24 101.215 41.14 101.765 40.94C102.315 40.74 102.795 40.45 103.205 40.07C103.615 39.69 103.945 39.23 104.195 38.69C104.445 38.15 104.6 37.545 104.66 36.875H102.38C102.29 37.595 102.04 38.175 101.63 38.615C101.23 39.055 100.67 39.275 99.9496 39.275C99.4196 39.275 98.9696 39.175 98.5996 38.975C98.2296 38.765 97.9296 38.49 97.6996 38.15C97.4696 37.81 97.2996 37.43 97.1896 37.01C97.0896 36.58 97.0396 36.14 97.0396 35.69C97.0396 35.22 97.0896 34.765 97.1896 34.325C97.2996 33.885 97.4696 33.495 97.6996 33.155C97.9296 32.805 98.2296 32.53 98.5996 32.33C98.9696 32.12 99.4196 32.015 99.9496 32.015C100.24 32.015 100.515 32.065 100.775 32.165C101.045 32.255 101.285 32.385 101.495 32.555C101.705 32.725 101.88 32.925 102.02 33.155C102.16 33.375 102.25 33.62 102.29 33.89ZM112.768 36.86L114.163 32.93H114.193L115.543 36.86H112.768ZM112.993 30.29L108.943 41H111.313L112.153 38.615H116.158L116.968 41H119.413L115.408 30.29H112.993ZM126.491 35.135V32.12H129.071C129.611 32.12 130.016 32.24 130.286 32.48C130.556 32.71 130.691 33.085 130.691 33.605C130.691 34.145 130.556 34.535 130.286 34.775C130.016 35.015 129.611 35.135 129.071 35.135H126.491ZM124.136 30.29V41H126.491V36.815H128.846C129.436 36.815 129.861 36.945 130.121 37.205C130.381 37.465 130.551 37.875 130.631 38.435C130.691 38.865 130.736 39.315 130.766 39.785C130.796 40.255 130.876 40.66 131.006 41H133.361C133.251 40.85 133.166 40.67 133.106 40.46C133.056 40.24 133.016 40.01 132.986 39.77C132.966 39.53 132.951 39.295 132.941 39.065C132.931 38.835 132.921 38.635 132.911 38.465C132.891 38.195 132.851 37.925 132.791 37.655C132.741 37.385 132.656 37.14 132.536 36.92C132.416 36.69 132.261 36.495 132.071 36.335C131.881 36.165 131.641 36.04 131.351 35.96V35.93C131.951 35.69 132.381 35.34 132.641 34.88C132.911 34.42 133.046 33.875 133.046 33.245C133.046 32.835 132.971 32.455 132.821 32.105C132.681 31.745 132.471 31.43 132.191 31.16C131.921 30.89 131.591 30.68 131.201 30.53C130.821 30.37 130.391 30.29 129.911 30.29H124.136ZM138.762 30.29V41H146.892V39.02H141.117V36.395H146.307V34.565H141.117V32.27H146.772V30.29H138.762Z" />
</svg>
