<svg viewBox="0 0 215 35" fill="none" xmlns="http://www.w3.org/2000/svg">
<path d="M57.493 15.521C57.493 18.059 56.692 19.994 55.09 21.326C53.488 22.658 51.211 23.324 48.259 23.324C45.307 23.324 43.021 22.658 41.401 21.326C39.799 19.994 38.998 18.059 38.998 15.521V4.424H44.965V15.44C44.965 16.484 45.244 17.321 45.802 17.951C46.36 18.563 47.17 18.869 48.232 18.869C49.294 18.869 50.104 18.554 50.662 17.924C51.238 17.294 51.526 16.466 51.526 15.44V4.424H57.493V15.521ZM78.6202 10.121C78.6202 11.255 78.3142 12.281 77.7022 13.199C77.0902 14.117 76.1992 14.792 75.0292 15.224L79.1602 23H72.4642L69.1702 16.223H66.9562V23H60.9892V4.424H72.3562C73.6882 4.424 74.8222 4.685 75.7582 5.207C76.7122 5.711 77.4232 6.404 77.8912 7.286C78.3772 8.15 78.6202 9.095 78.6202 10.121ZM72.5452 10.364C72.5452 9.878 72.3832 9.473 72.0592 9.149C71.7352 8.825 71.3392 8.663 70.8712 8.663H66.9562V12.092H70.8712C71.3392 12.092 71.7352 11.93 72.0592 11.606C72.3832 11.264 72.5452 10.85 72.5452 10.364ZM90.3713 4.1C92.1533 4.1 93.7553 4.37 95.1773 4.91C96.5993 5.45 97.7243 6.251 98.5523 7.313C99.3983 8.357 99.8213 9.635 99.8213 11.147H94.1243C94.1243 10.373 93.7823 9.752 93.0983 9.284C92.4143 8.798 91.5863 8.555 90.6143 8.555C89.2103 8.555 88.1483 8.933 87.4283 9.689C86.7083 10.427 86.3483 11.48 86.3483 12.848V14.576C86.3483 15.944 86.7083 17.006 87.4283 17.762C88.1483 18.5 89.2103 18.869 90.6143 18.869C91.5863 18.869 92.4143 18.644 93.0983 18.194C93.7823 17.726 94.1243 17.132 94.1243 16.412H89.9123V12.632H99.8213V23H96.7433L96.1493 21.164C94.4573 22.604 92.2433 23.324 89.5073 23.324C86.4293 23.324 84.1163 22.523 82.5683 20.921C81.0203 19.301 80.2463 16.898 80.2463 13.712C80.2463 10.562 81.1193 8.177 82.8653 6.557C84.6293 4.919 87.1313 4.1 90.3713 4.1ZM103.02 4.424H119.085V8.879H108.987V11.444H117.627V15.71H108.987V18.545H119.274V23H103.02V4.424ZM135.29 23L127.487 13.982V23H122.006V4.424H127.217L135.02 13.577V4.424H140.501V23H135.29ZM154.689 9.176V23H148.722V9.176H142.62V4.424H160.764V9.176H154.689Z" class="svg-black"/>
<path d="M178.939 23V16.304C178.939 15.476 178.966 14.63 179.02 13.766C179.092 12.884 179.164 12.146 179.236 11.552C179.308 10.958 179.353 10.58 179.371 10.418H179.263L175.834 23H171.163L167.707 10.445H167.599C167.617 10.607 167.662 10.985 167.734 11.579C167.824 12.155 167.905 12.884 167.977 13.766C168.049 14.63 168.085 15.476 168.085 16.304V23H162.604V4.424H171.028L173.836 15.143H173.944L176.725 4.424H184.852V23H178.939ZM196.025 4.424C202.523 4.424 205.772 7.52 205.772 13.712C205.772 19.904 202.523 23 196.025 23H187.979V4.424H196.025ZM193.946 18.545H195.917C198.419 18.545 199.67 17.204 199.67 14.522V12.902C199.67 10.22 198.419 8.879 195.917 8.879H193.946V18.545Z" class="svg-red"/>
<path d="M45.1475 30.6855C45.0758 31.444 44.7959 32.0365 44.3076 32.4629C43.8193 32.8861 43.1699 33.0977 42.3594 33.0977C41.793 33.0977 41.2933 32.9642 40.8604 32.6973C40.4307 32.4271 40.0986 32.0446 39.8643 31.5498C39.6299 31.055 39.5078 30.4805 39.498 29.8262V29.1621C39.498 28.4915 39.6169 27.9007 39.8545 27.3896C40.0921 26.8786 40.4323 26.4847 40.875 26.208C41.321 25.9313 41.8353 25.793 42.418 25.793C43.2025 25.793 43.834 26.0062 44.3125 26.4326C44.791 26.859 45.0693 27.4613 45.1475 28.2393H43.917C43.8584 27.7282 43.7087 27.3604 43.4678 27.1357C43.2301 26.9079 42.8802 26.7939 42.418 26.7939C41.8809 26.7939 41.4674 26.9909 41.1777 27.3848C40.8913 27.7754 40.7448 28.3499 40.7383 29.1084V29.7383C40.7383 30.5065 40.875 31.0924 41.1484 31.4961C41.4251 31.8997 41.8288 32.1016 42.3594 32.1016C42.8444 32.1016 43.209 31.9925 43.4531 31.7744C43.6973 31.5563 43.8519 31.1934 43.917 30.6855H45.1475ZM53.6297 29.6309C53.6297 30.3275 53.5092 30.9395 53.2684 31.4668C53.0275 31.9909 52.6824 32.3945 52.2332 32.6777C51.7872 32.9577 51.2729 33.0977 50.6902 33.0977C50.1141 33.0977 49.5997 32.9577 49.1473 32.6777C48.698 32.3945 48.3497 31.9925 48.1023 31.4717C47.8582 30.9508 47.7345 30.3503 47.7312 29.6699V29.2695C47.7312 28.5762 47.8533 27.9642 48.0975 27.4336C48.3449 26.903 48.6915 26.4977 49.1375 26.2178C49.5867 25.9346 50.101 25.793 50.6805 25.793C51.2599 25.793 51.7726 25.9329 52.2186 26.2129C52.6678 26.4896 53.0145 26.89 53.2586 27.4141C53.5027 27.9349 53.6264 28.542 53.6297 29.2354V29.6309ZM52.3943 29.2598C52.3943 28.472 52.2446 27.8682 51.9451 27.4482C51.6489 27.0283 51.2273 26.8184 50.6805 26.8184C50.1466 26.8184 49.7283 27.0283 49.4256 27.4482C49.1261 27.8649 48.9731 28.4557 48.9666 29.2207V29.6309C48.9666 30.4121 49.118 31.016 49.4207 31.4424C49.7267 31.8688 50.1499 32.082 50.6902 32.082C51.2371 32.082 51.657 31.8737 51.95 31.457C52.2462 31.0404 52.3943 30.4316 52.3943 29.6309V29.2598ZM58.9576 31.4521L60.7643 25.8906H62.1217L59.5631 33H58.3668L55.818 25.8906H57.1705L58.9576 31.4521ZM65.9311 33H64.7006V25.8906H65.9311V33ZM69.1496 33V25.8906H71.2492C71.8775 25.8906 72.4341 26.0306 72.9191 26.3105C73.4074 26.5905 73.785 26.9876 74.052 27.502C74.3189 28.0163 74.4523 28.6055 74.4523 29.2695V29.626C74.4523 30.2998 74.3173 30.8923 74.0471 31.4033C73.7801 31.9144 73.3977 32.3083 72.8996 32.585C72.4048 32.8617 71.8368 33 71.1955 33H69.1496ZM70.385 26.8867V32.0137H71.1906C71.8384 32.0137 72.3348 31.8118 72.6799 31.4082C73.0282 31.0013 73.2056 30.4186 73.2121 29.6602V29.2646C73.2121 28.4932 73.0445 27.904 72.7092 27.4971C72.3739 27.0902 71.8872 26.8867 71.2492 26.8867H70.385ZM86.4168 26.8867H84.2V33H82.9744V26.8867H80.7771V25.8906H86.4168V26.8867ZM93.2096 29.8262H90.2896V32.0137H93.7027V33H89.0543V25.8906H93.6686V26.8867H90.2896V28.8496H93.2096V29.8262ZM100.124 31.1689C100.124 30.8564 100.014 30.6156 99.7924 30.4463C99.5743 30.277 99.1788 30.1061 98.6059 29.9336C98.0329 29.7611 97.5772 29.569 97.2387 29.3574C96.5909 28.9505 96.267 28.4199 96.267 27.7656C96.267 27.1927 96.4997 26.7207 96.9652 26.3496C97.434 25.9785 98.0411 25.793 98.7865 25.793C99.2813 25.793 99.7224 25.8841 100.11 26.0664C100.497 26.2487 100.801 26.5091 101.023 26.8477C101.244 27.1829 101.355 27.5557 101.355 27.9658H100.124C100.124 27.5947 100.007 27.305 99.7729 27.0967C99.5417 26.8851 99.2097 26.7793 98.7768 26.7793C98.3731 26.7793 98.059 26.8656 97.8344 27.0381C97.613 27.2106 97.5023 27.4515 97.5023 27.7607C97.5023 28.0212 97.6228 28.2393 97.8637 28.415C98.1046 28.5876 98.5017 28.7568 99.0551 28.9229C99.6085 29.0856 100.053 29.2728 100.388 29.4844C100.723 29.6927 100.969 29.9336 101.125 30.207C101.282 30.4772 101.36 30.7946 101.36 31.1592C101.36 31.7516 101.132 32.2236 100.676 32.5752C100.224 32.9235 99.6085 33.0977 98.8305 33.0977C98.3161 33.0977 97.8425 33.0033 97.4096 32.8145C96.9799 32.6224 96.6446 32.3587 96.4037 32.0234C96.1661 31.6882 96.0473 31.2975 96.0473 30.8516H97.2826C97.2826 31.2552 97.4161 31.5677 97.683 31.7891C97.9499 32.0104 98.3324 32.1211 98.8305 32.1211C99.2602 32.1211 99.5824 32.0348 99.7973 31.8623C100.015 31.6865 100.124 31.4554 100.124 31.1689ZM109.28 26.8867H107.064V33H105.838V26.8867H103.641V25.8906H109.28V26.8867ZM115.556 31.1689C115.556 30.8564 115.445 30.6156 115.224 30.4463C115.006 30.277 114.61 30.1061 114.037 29.9336C113.464 29.7611 113.008 29.569 112.67 29.3574C112.022 28.9505 111.698 28.4199 111.698 27.7656C111.698 27.1927 111.931 26.7207 112.396 26.3496C112.865 25.9785 113.472 25.793 114.218 25.793C114.713 25.793 115.154 25.8841 115.541 26.0664C115.928 26.2487 116.233 26.5091 116.454 26.8477C116.675 27.1829 116.786 27.5557 116.786 27.9658H115.556C115.556 27.5947 115.438 27.305 115.204 27.0967C114.973 26.8851 114.641 26.7793 114.208 26.7793C113.804 26.7793 113.49 26.8656 113.266 27.0381C113.044 27.2106 112.934 27.4515 112.934 27.7607C112.934 28.0212 113.054 28.2393 113.295 28.415C113.536 28.5876 113.933 28.7568 114.486 28.9229C115.04 29.0856 115.484 29.2728 115.819 29.4844C116.155 29.6927 116.4 29.9336 116.557 30.207C116.713 30.4772 116.791 30.7946 116.791 31.1592C116.791 31.7516 116.563 32.2236 116.107 32.5752C115.655 32.9235 115.04 33.0977 114.262 33.0977C113.747 33.0977 113.274 33.0033 112.841 32.8145C112.411 32.6224 112.076 32.3587 111.835 32.0234C111.597 31.6882 111.479 31.2975 111.479 30.8516H112.714C112.714 31.2552 112.847 31.5677 113.114 31.7891C113.381 32.0104 113.764 32.1211 114.262 32.1211C114.691 32.1211 115.014 32.0348 115.229 31.8623C115.447 31.6865 115.556 31.4554 115.556 31.1689Z" class="svg-black"/>
<rect y="4" width="29" height="29" class="svg-red"/>
<rect x="13.9076" y="9.52383" width="13.8095" height="13.8095" transform="rotate(45 13.9076 9.52383)" fill="white"/>
</svg>
