<svg width="295" height="304" viewBox="0 0 295 304" fill="none" xmlns="http://www.w3.org/2000/svg">
<path class="svg-white" d="M111.656 223.311C173.321 223.311 223.311 173.321 223.311 111.656C223.311 49.9899 173.321 0 111.656 0C49.9899 0 0 49.9899 0 111.656C0 173.321 49.9899 223.311 111.656 223.311Z" />
<path id="cape" class="svg-red" d="M121.204 156.069C130.892 150.744 142.949 151.813 153.388 155.454C163.826 159.094 173.286 165.058 183.422 169.47C214.398 182.95 251.733 180.777 280.935 163.792C283.697 170.217 280.734 177.565 277.479 183.754C274.225 189.943 270.515 196.652 271.855 203.515C273.57 212.297 282.778 217.563 286.509 225.696C290.051 233.417 288.15 242.484 285.432 250.532C282.715 258.581 279.189 266.689 279.651 275.171C280.113 283.653 286.275 292.622 294.769 292.628C282.181 294.584 269.345 296.542 256.764 294.537C244.183 292.533 231.668 285.879 225.827 274.558C222.907 268.899 221.782 262.392 218.429 256.979C212.717 247.759 201.757 243.423 191.415 240.155C181.073 236.887 170.006 233.739 162.724 225.701C155.786 218.042 153.589 207.373 149.913 197.715C143.722 181.547 132.97 167.525 118.962 157.352" />
<path class="svg-grey-dark" d="M132.429 115.942C129.028 114.36 124.852 113.841 121.392 115.311C117.931 116.781 115.572 120.55 116.691 123.885C117.198 125.397 118.354 126.884 117.904 128.411C117.557 129.586 116.348 130.362 115.161 130.914C113.974 131.466 112.676 131.93 111.817 132.86C110.959 133.791 110.78 135.393 111.852 136.115C112.205 136.353 112.647 136.465 112.99 136.716C113.282 136.953 113.492 137.276 113.592 137.638C113.692 138.001 113.677 138.386 113.548 138.739C113.262 139.45 112.79 140.071 112.181 140.537C110.964 141.586 109.355 142.788 109.733 144.279C109.873 144.677 110.108 145.035 110.416 145.324C110.724 145.612 111.098 145.822 111.505 145.936C112.35 146.179 113.226 146.295 114.105 146.279L150.03 147.41C151.216 147.5 152.408 147.433 153.577 147.212C154.145 147.109 154.685 146.889 155.165 146.567C155.644 146.245 156.052 145.828 156.362 145.341C157.05 144.068 156.599 142.499 155.749 141.31C154.899 140.121 153.697 139.183 152.704 138.091C151.71 136.999 150.897 135.636 151.072 134.225C151.212 133.095 151.957 132.119 152.492 131.093C153.027 130.066 153.338 128.784 152.645 127.839C151.669 126.509 149.326 126.629 148.216 125.389C147.378 124.454 147.54 123.107 147.457 121.9C147.256 118.998 145.247 116.257 142.387 114.984C140.932 114.359 139.35 114.09 137.771 114.197C136.191 114.305 134.66 114.787 133.304 115.602L132.429 115.942Z"/>
<path class="svg-peach" d="M109.727 298.115L104.101 296.424L107.944 273.917L116.248 276.413L109.727 298.115Z" />
<path class="svg-grey-dark" d="M109.524 304L91.3817 298.549L91.4507 298.32C91.7292 297.392 92.1877 296.529 92.8 295.779C93.4122 295.029 94.1662 294.407 95.0189 293.948C95.8717 293.489 96.8064 293.203 97.7697 293.105C98.7331 293.008 99.7062 293.101 100.634 293.38L100.634 293.38L111.715 296.709L109.524 304Z" />
<path class="svg-peach" d="M162.822 298.305L156.947 298.305L154.152 275.644L162.823 275.644L162.822 298.305Z" />
<path class="svg-grey-dark" d="M164.32 304L145.377 303.999V303.76C145.377 302.791 145.568 301.833 145.938 300.938C146.309 300.043 146.852 299.231 147.537 298.546C148.221 297.861 149.034 297.318 149.929 296.948C150.823 296.577 151.782 296.386 152.75 296.386H152.751L164.321 296.387L164.32 304Z" />
<path class="svg-grey-dark" d="M154.667 281.166C154.154 281.165 153.658 280.983 153.268 280.65C152.878 280.317 152.62 279.857 152.538 279.35L143.815 224.934C143.757 224.574 143.584 224.242 143.32 223.989C143.057 223.737 142.718 223.577 142.356 223.534C141.993 223.491 141.626 223.568 141.311 223.752C140.996 223.937 140.75 224.219 140.61 224.556L118.01 278.963C117.8 279.466 117.407 279.87 116.912 280.096C116.416 280.322 115.854 280.353 115.337 280.182L107.174 277.461C106.665 277.293 106.238 276.942 105.975 276.476C105.712 276.01 105.633 275.462 105.752 274.94L124.273 192.985C124.364 192.591 124.563 192.229 124.849 191.942C125.134 191.655 125.495 191.453 125.889 191.36L150.728 185.594C151.033 185.525 151.349 185.522 151.656 185.585C151.962 185.649 152.252 185.778 152.504 185.963C168.86 197.847 167.478 236.673 164.43 278.832C164.392 279.36 164.161 279.855 163.782 280.224C163.402 280.593 162.901 280.81 162.372 280.833L154.761 281.164C154.73 281.165 154.698 281.166 154.667 281.166Z" />
<path class="svg-peach" d="M133.758 147.132C140.258 147.132 145.528 141.863 145.528 135.362C145.528 128.862 140.258 123.592 133.758 123.592C127.258 123.592 121.988 128.862 121.988 135.362C121.988 141.863 127.258 147.132 133.758 147.132Z" />
<path class="svg-grey" d="M134.266 196.364C131.441 196.346 128.655 195.702 126.108 194.479L126.021 194.438L125.986 194.348L115.429 166.996L115.228 162.244C115.161 160.655 115.427 159.069 116.01 157.589C116.593 156.109 117.479 154.767 118.612 153.65C119.744 152.533 121.098 151.666 122.586 151.104C124.075 150.543 125.664 150.299 127.252 150.388L138.46 151.019C141.355 151.184 144.078 152.446 146.076 154.548C148.073 156.65 149.195 159.434 149.211 162.334C149.503 162.893 151.57 167.266 147.518 171.374C147.367 172.31 145.95 182.035 151.298 187.383L151.448 187.533L151.317 187.7C151.232 187.809 144.363 196.363 134.266 196.364Z" />
<path class="svg-peach" d="M150.004 198.427C150.666 198.187 151.268 197.805 151.767 197.307C152.265 196.809 152.648 196.208 152.889 195.546C153.131 194.884 153.224 194.178 153.162 193.476C153.1 192.774 152.886 192.094 152.533 191.485L163.727 178.525L154.902 177.377L145.626 189.859C144.64 190.52 143.932 191.518 143.634 192.666C143.336 193.815 143.469 195.032 144.009 196.088C144.549 197.144 145.457 197.966 146.562 198.397C147.667 198.828 148.892 198.839 150.004 198.427Z" />
<path class="svg-grey" d="M157.003 188.425C156.582 188.425 156.171 188.301 155.82 188.07L150.283 184.439C149.818 184.135 149.488 183.663 149.363 183.121C149.238 182.579 149.328 182.01 149.613 181.533L153.621 174.799C153.838 174.435 153.975 174.029 154.024 173.608C154.073 173.187 154.032 172.76 153.904 172.356C153.776 171.952 153.564 171.579 153.282 171.262C153 170.946 152.655 170.693 152.268 170.519L140.753 165.357C139.337 164.714 138.182 163.609 137.475 162.224C136.769 160.838 136.554 159.254 136.866 157.73C137.081 156.703 137.531 155.739 138.179 154.913C138.828 154.088 139.658 153.423 140.605 152.971C141.553 152.519 142.592 152.291 143.641 152.306C144.691 152.321 145.723 152.577 146.657 153.056L164.126 162.007C165.304 162.611 166.338 163.462 167.157 164.503C167.976 165.544 168.56 166.749 168.87 168.036C169.179 169.324 169.207 170.663 168.951 171.962C168.695 173.261 168.161 174.49 167.387 175.563L158.751 187.529C158.552 187.807 158.289 188.033 157.985 188.188C157.681 188.344 157.344 188.425 157.003 188.425Z" />
<path class="svg-grey-dark" d="M121.717 133.689C125.434 133.39 128.52 129.677 128.134 125.968C128.09 127.497 128.61 128.989 129.594 130.159C130.579 131.329 131.959 132.097 133.473 132.316C135.178 132.504 137.047 131.988 138.531 132.848C140.174 133.801 140.7 136.114 142.413 136.937C144.067 137.732 146.169 136.648 146.986 135.004C147.803 133.361 147.603 131.386 147.061 129.632C146.289 127.131 144.882 124.873 142.978 123.076C141.074 121.28 138.737 120.007 136.196 119.381C133.654 118.755 130.993 118.797 128.473 119.504C125.952 120.211 123.658 121.558 121.812 123.415C120.249 124.987 119.008 126.99 118.807 129.198C118.606 131.405 119.63 133.801 121.612 134.792L121.717 133.689Z" />
<path class="svg-peach" d="M94.3349 101.086C94.955 101.42 95.4943 101.887 95.9148 102.452C96.3352 103.017 96.6266 103.668 96.7685 104.358C96.9103 105.048 96.8991 105.761 96.7357 106.446C96.5723 107.131 96.2606 107.772 95.8226 108.324L105.004 122.779L96.1062 122.627L88.7518 108.923C87.8736 108.126 87.3184 107.034 87.1913 105.855C87.0643 104.676 87.3742 103.491 88.0624 102.525C88.7506 101.559 89.7692 100.879 90.9253 100.614C92.0814 100.349 93.2945 100.517 94.3349 101.086V101.086Z" />
<path class="svg-grey" d="M101.735 111.379L113.559 139.318L125.955 160.338C126.479 161.226 126.793 162.22 126.876 163.247C126.958 164.274 126.807 165.306 126.432 166.266C126.057 167.225 125.469 168.087 124.713 168.786C123.956 169.485 123.05 170.003 122.064 170.301C120.5 170.765 118.822 170.655 117.332 169.989C115.842 169.324 114.639 168.148 113.941 166.674L90.0491 115.623C89.9193 115.345 89.8501 115.043 89.846 114.737C89.842 114.431 89.9031 114.128 90.0255 113.847C90.1479 113.566 90.3287 113.315 90.5558 113.109C90.7829 112.904 91.0511 112.749 91.3427 112.656L99.0895 110.167C99.2363 110.12 99.3877 110.088 99.5411 110.073C99.9986 110.026 100.459 110.128 100.854 110.364C101.249 110.599 101.558 110.955 101.735 111.379Z" />
<path class="svg-cream" d="M136.311 51.8564V91.1514C136.311 91.2785 136.26 91.4004 136.17 91.4903C136.08 91.5801 135.958 91.6306 135.831 91.6306C135.704 91.6306 135.582 91.5801 135.493 91.4903C135.403 91.4004 135.352 91.2785 135.352 91.1514V51.8564C135.352 51.7293 135.403 51.6074 135.493 51.5175C135.582 51.4276 135.704 51.3771 135.831 51.3771C135.958 51.3771 136.08 51.4276 136.17 51.5175C136.26 51.6074 136.311 51.7293 136.311 51.8564Z" />
<path class="svg-cream" d="M177.918 85.1925L164.364 98.7465C164.274 98.836 164.152 98.8863 164.026 98.8861C163.899 98.886 163.777 98.8355 163.687 98.7457C163.598 98.656 163.547 98.5343 163.547 98.4074C163.547 98.2805 163.597 98.1587 163.686 98.0688L177.241 84.5148C177.285 84.4701 177.338 84.4346 177.396 84.4104C177.454 84.3862 177.517 84.3737 177.58 84.3736C177.643 84.3736 177.705 84.3859 177.763 84.41C177.822 84.4341 177.874 84.4694 177.919 84.514C177.964 84.5586 177.999 84.6115 178.023 84.6697C178.047 84.7279 178.059 84.7904 178.059 84.8534C178.059 84.9164 178.047 84.9788 178.023 85.037C177.998 85.0952 177.963 85.148 177.918 85.1925Z" />
<path class="svg-cream" d="M93.7448 85.1925L107.299 98.7465C107.389 98.8364 107.511 98.8869 107.638 98.8869C107.765 98.8869 107.887 98.8364 107.977 98.7465C108.066 98.6566 108.117 98.5348 108.117 98.4077C108.117 98.2806 108.066 98.1587 107.977 98.0688L94.4225 84.5148C94.378 84.4701 94.3252 84.4346 94.267 84.4104C94.2088 84.3862 94.1464 84.3737 94.0834 84.3736C94.0204 84.3736 93.958 84.3859 93.8997 84.41C93.8415 84.4341 93.7886 84.4694 93.744 84.514C93.6994 84.5586 93.6641 84.6115 93.64 84.6697C93.6159 84.7279 93.6036 84.7904 93.6036 84.8534C93.6037 84.9164 93.6162 84.9788 93.6404 85.037C93.6646 85.0952 93.7001 85.148 93.7448 85.1925Z" />
</svg>
